%TF.GenerationSoftware,KiCad,Pcbnew,10.0.5*%
%TF.CreationDate,2026-08-11T17:37:50+02:00*%
%TF.ProjectId,OpenRX-Lite,4f70656e-5258-42d4-9c69-74652e6b6963,rev?*%
%TF.SameCoordinates,Original*%
%TF.FileFunction,Copper,L4,Inr*%
%TF.FilePolarity,Positive*%
%FSLAX46Y46*%
G04 Gerber Fmt 4.6, Leading zero omitted, Abs format (unit mm)*
G04 Created by KiCad (PCBNEW 10.0.5) date 2026-08-11 17:37:50*
%MOMM*%
%LPD*%
G01*
G04 APERTURE LIST*
G04 Aperture macros list*
%AMRoundRect*
0 Rectangle with rounded corners*
0 $1 Rounding radius*
0 $2 $3 $4 $5 $6 $7 $8 $9 X,Y pos of 4 corners*
0 Add a 4 corners polygon primitive as box body*
4,1,4,$2,$3,$4,$5,$6,$7,$8,$9,$2,$3,0*
0 Add four circle primitives for the rounded corners*
1,1,$1+$1,$2,$3*
1,1,$1+$1,$4,$5*
1,1,$1+$1,$6,$7*
1,1,$1+$1,$8,$9*
0 Add four rect primitives between the rounded corners*
20,1,$1+$1,$2,$3,$4,$5,0*
20,1,$1+$1,$4,$5,$6,$7,0*
20,1,$1+$1,$6,$7,$8,$9,0*
20,1,$1+$1,$8,$9,$2,$3,0*%
G04 Aperture macros list end*
%TA.AperFunction,ComponentPad*%
%ADD10C,0.600000*%
%TD*%
%TA.AperFunction,ComponentPad*%
%ADD11RoundRect,0.475000X-0.475000X-1.775000X0.475000X-1.775000X0.475000X1.775000X-0.475000X1.775000X0*%
%TD*%
%TA.AperFunction,ViaPad*%
%ADD12C,0.450000*%
%TD*%
%TA.AperFunction,Conductor*%
%ADD13C,0.090000*%
%TD*%
G04 APERTURE END LIST*
D10*
%TO.N,N/C*%
%TO.C,TP4*%
X108310000Y-109800000D03*
X108310000Y-112200000D03*
D11*
%TO.N,GND*%
X108810000Y-111000000D03*
D10*
%TO.N,N/C*%
X109310000Y-109800000D03*
X109310000Y-112200000D03*
%TD*%
%TO.N,N/C*%
%TO.C,TP2*%
X103224048Y-109800000D03*
X103224048Y-112200000D03*
D11*
%TO.N,Net-(U1-U0TXD)*%
X103724048Y-111000000D03*
D10*
%TO.N,N/C*%
X104224048Y-109800000D03*
X104224048Y-112200000D03*
%TD*%
%TO.N,N/C*%
%TO.C,TP1*%
X100684048Y-109800000D03*
X100684048Y-112200000D03*
D11*
%TO.N,Net-(U1-U0RXD)*%
X101184048Y-111000000D03*
D10*
%TO.N,N/C*%
X101684048Y-109800000D03*
X101684048Y-112200000D03*
%TD*%
%TO.N,N/C*%
%TO.C,TP3*%
X105770000Y-109800000D03*
X105770000Y-112200000D03*
D11*
%TO.N,+5V*%
X106270000Y-111000000D03*
D10*
%TO.N,N/C*%
X106770000Y-109800000D03*
X106770000Y-112200000D03*
%TD*%
D12*
%TO.N,GND*%
X106765763Y-100815000D03*
X107750000Y-102950000D03*
X105880000Y-106000000D03*
X103146400Y-102448235D03*
X101895000Y-102900000D03*
X107550000Y-108950000D03*
X108350000Y-103450000D03*
X104256587Y-100860000D03*
X108329999Y-106452117D03*
X107150000Y-103550000D03*
X101358504Y-108382993D03*
X100950000Y-100950000D03*
X108250000Y-107700000D03*
X106150000Y-103350000D03*
X105400000Y-100950000D03*
X102500000Y-107950000D03*
X108450000Y-102200000D03*
X101780000Y-105750000D03*
X105220000Y-102430000D03*
X108683553Y-100815000D03*
X105520000Y-101610000D03*
X105800000Y-102650000D03*
X102950000Y-106150000D03*
X102250000Y-101590000D03*
X101380000Y-101270000D03*
%TO.N,+3V3*%
X105450000Y-99930000D03*
X104600000Y-105300000D03*
X105100000Y-103400000D03*
X101423107Y-102340911D03*
X107550000Y-107450000D03*
X103280406Y-106642432D03*
X109570000Y-104200000D03*
X104994559Y-108994559D03*
X103500000Y-100080000D03*
X102089998Y-100200000D03*
X101670000Y-100370000D03*
%TO.N,/ESP32-C3 + SX1281 Core (UFL)/XTAL_P*%
X109575000Y-104930000D03*
%TO.N,/ESP32-C3 + SX1281 Core (UFL)/BOOT*%
X101600000Y-107900000D03*
X104675000Y-101240000D03*
%TO.N,Net-(U1-U0TXD)*%
X109470002Y-102300000D03*
%TO.N,Net-(C25-Pad1)*%
X107640000Y-104900481D03*
%TO.N,/ESP32-C3 + SX1281 Core (UFL)/LED*%
X103977178Y-100395000D03*
%TO.N,/ESP32-C3 + SX1281 Core (UFL)/RST*%
X104500000Y-106900000D03*
X101135000Y-104900000D03*
%TO.N,Net-(U1-U0RXD)*%
X109470002Y-101759997D03*
%TO.N,Net-(U3-VR_PA)*%
X100600000Y-103450000D03*
%TO.N,Net-(U3-DCC_FB)*%
X103850000Y-106850000D03*
X100600000Y-104300000D03*
%TO.N,Net-(U3-XTA)*%
X100637032Y-105284182D03*
%TO.N,/ESP32-C3 + SX1281 Core (UFL)/BUSY*%
X101314783Y-106285945D03*
%TO.N,/ESP32-C3 + SX1281 Core (UFL)/DIO1*%
X106730000Y-104385000D03*
X105110000Y-107380000D03*
%TO.N,Net-(U3-DCC_SW)*%
X104717143Y-105827143D03*
%TO.N,/ESP32-C3 + SX1281 Core (UFL)/MISO*%
X103885659Y-103834497D03*
%TO.N,/ESP32-C3 + SX1281 Core (UFL)/MOSI*%
X104600000Y-104300000D03*
%TO.N,/ESP32-C3 + SX1281 Core (UFL)/SCK*%
X104580000Y-102800000D03*
%TO.N,/ESP32-C3 + SX1281 Core (UFL)/NSS*%
X103831806Y-103046067D03*
%TO.N,/ESP32-C3 + SX1281 Core (UFL)/XTAL_N*%
X109424155Y-102838053D03*
X107650000Y-106600000D03*
%TO.N,+5V*%
X100520000Y-100390000D03*
%TD*%
%TO.N,/ESP32-C3 + SX1281 Core (UFL)/BOOT*%
D13*
X102555000Y-102857096D02*
X100245000Y-105167096D01*
X103610000Y-101240000D02*
X102555000Y-102295000D01*
X100245000Y-106545000D02*
X101600000Y-107900000D01*
X100245000Y-105167096D02*
X100245000Y-106545000D01*
X102555000Y-102295000D02*
X102555000Y-102857096D01*
X104675000Y-101240000D02*
X103610000Y-101240000D01*
%TO.N,Net-(U1-U0TXD)*%
X103724048Y-109670675D02*
X103724048Y-110755000D01*
X107350000Y-104550000D02*
X106270000Y-105630000D01*
X109470002Y-102300000D02*
X108950000Y-102300000D01*
X106270000Y-105630000D02*
X106270000Y-107124723D01*
X108950000Y-102300000D02*
X107350000Y-103900000D01*
X106270000Y-107124723D02*
X103724048Y-109670675D01*
X103725000Y-109755000D02*
X103724048Y-109755000D01*
X107350000Y-103900000D02*
X107350000Y-104550000D01*
%TO.N,/ESP32-C3 + SX1281 Core (UFL)/RST*%
X102500000Y-104900000D02*
X104500000Y-106900000D01*
X101135000Y-104900000D02*
X102500000Y-104900000D01*
%TO.N,Net-(U1-U0RXD)*%
X101290883Y-108800000D02*
X101200000Y-108800000D01*
X109429999Y-101800000D02*
X108250000Y-101800000D01*
X101300883Y-108810000D02*
X101290883Y-108800000D01*
X104860000Y-107027904D02*
X104860000Y-107049117D01*
X104627904Y-107260000D02*
X103432904Y-108455000D01*
X105100000Y-106787904D02*
X104860000Y-107027904D01*
X104860000Y-107049117D02*
X104649117Y-107260000D01*
X103432904Y-108455000D02*
X102145000Y-108455000D01*
X101599117Y-108810000D02*
X101300883Y-108810000D01*
X101800000Y-108800000D02*
X101609117Y-108800000D01*
X104649117Y-107260000D02*
X104627904Y-107260000D01*
X109470002Y-101759997D02*
X109429999Y-101800000D01*
X108250000Y-101800000D02*
X105100000Y-104950000D01*
X101609117Y-108800000D02*
X101599117Y-108810000D01*
X102145000Y-108455000D02*
X101800000Y-108800000D01*
X105100000Y-104950000D02*
X105100000Y-106787904D01*
%TO.N,/ESP32-C3 + SX1281 Core (UFL)/DIO1*%
X105280000Y-105820000D02*
X105280000Y-107210000D01*
X106715000Y-104385000D02*
X105280000Y-105820000D01*
X105280000Y-107210000D02*
X105110000Y-107380000D01*
X106730000Y-104385000D02*
X106715000Y-104385000D01*
%TO.N,/ESP32-C3 + SX1281 Core (UFL)/XTAL_N*%
X109394164Y-102955836D02*
X108100000Y-104250000D01*
X108100000Y-104250000D02*
X108100000Y-106150000D01*
X109394164Y-102868044D02*
X109394164Y-102955836D01*
X108100000Y-106150000D02*
X107650000Y-106600000D01*
X109424155Y-102838053D02*
X109394164Y-102868044D01*
%TD*%
%TA.AperFunction,Conductor*%
%TO.N,GND*%
G36*
X109777500Y-102945041D02*
G01*
X109798001Y-102971758D01*
X109799500Y-102983146D01*
X109799500Y-103891984D01*
X109786613Y-103923097D01*
X109755500Y-103935984D01*
X109733500Y-103930089D01*
X109691782Y-103906003D01*
X109691778Y-103906001D01*
X109611536Y-103884500D01*
X109528464Y-103884500D01*
X109474969Y-103898834D01*
X109448221Y-103906001D01*
X109448217Y-103906003D01*
X109376280Y-103947537D01*
X109376279Y-103947537D01*
X109317537Y-104006279D01*
X109317537Y-104006280D01*
X109276003Y-104078217D01*
X109276001Y-104078221D01*
X109276001Y-104078222D01*
X109254500Y-104158464D01*
X109254500Y-104241536D01*
X109265364Y-104282080D01*
X109276001Y-104321778D01*
X109276003Y-104321782D01*
X109288522Y-104343465D01*
X109317538Y-104393721D01*
X109376279Y-104452462D01*
X109448222Y-104493999D01*
X109528464Y-104515500D01*
X109528466Y-104515500D01*
X109611534Y-104515500D01*
X109611536Y-104515500D01*
X109691778Y-104493999D01*
X109733501Y-104469909D01*
X109766887Y-104465514D01*
X109793605Y-104486014D01*
X109799500Y-104508015D01*
X109799500Y-104619097D01*
X109786613Y-104650210D01*
X109755500Y-104663097D01*
X109733500Y-104657202D01*
X109696783Y-104636003D01*
X109696778Y-104636001D01*
X109616536Y-104614500D01*
X109533464Y-104614500D01*
X109487728Y-104626755D01*
X109453221Y-104636001D01*
X109453217Y-104636003D01*
X109381280Y-104677537D01*
X109381279Y-104677537D01*
X109322537Y-104736279D01*
X109322537Y-104736280D01*
X109281003Y-104808217D01*
X109281001Y-104808221D01*
X109276975Y-104823246D01*
X109259500Y-104888464D01*
X109259500Y-104971536D01*
X109276639Y-105035500D01*
X109281001Y-105051778D01*
X109281003Y-105051782D01*
X109291261Y-105069549D01*
X109322538Y-105123721D01*
X109381279Y-105182462D01*
X109453222Y-105223999D01*
X109533464Y-105245500D01*
X109533466Y-105245500D01*
X109616534Y-105245500D01*
X109616536Y-105245500D01*
X109696778Y-105223999D01*
X109733500Y-105202796D01*
X109766887Y-105198401D01*
X109793605Y-105218901D01*
X109799500Y-105240902D01*
X109799500Y-110546539D01*
X109798958Y-110553422D01*
X109788379Y-110620216D01*
X109784125Y-110633309D01*
X109755014Y-110690441D01*
X109746923Y-110701578D01*
X109701578Y-110746923D01*
X109690441Y-110755014D01*
X109633309Y-110784125D01*
X109620216Y-110788379D01*
X109553422Y-110798958D01*
X109546539Y-110799500D01*
X107354500Y-110799500D01*
X107323387Y-110786613D01*
X107310500Y-110755500D01*
X107310500Y-109747273D01*
X107909500Y-109747273D01*
X107909500Y-109852727D01*
X107929478Y-109927289D01*
X107936792Y-109954584D01*
X107936795Y-109954591D01*
X107989517Y-110045909D01*
X107989518Y-110045910D01*
X107989520Y-110045913D01*
X108064087Y-110120480D01*
X108155413Y-110173207D01*
X108257273Y-110200500D01*
X108257275Y-110200500D01*
X108362725Y-110200500D01*
X108362727Y-110200500D01*
X108464587Y-110173207D01*
X108555913Y-110120480D01*
X108630480Y-110045913D01*
X108683207Y-109954587D01*
X108710500Y-109852727D01*
X108710500Y-109747273D01*
X108909500Y-109747273D01*
X108909500Y-109852727D01*
X108929478Y-109927289D01*
X108936792Y-109954584D01*
X108936795Y-109954591D01*
X108989517Y-110045909D01*
X108989518Y-110045910D01*
X108989520Y-110045913D01*
X109064087Y-110120480D01*
X109155413Y-110173207D01*
X109257273Y-110200500D01*
X109257275Y-110200500D01*
X109362725Y-110200500D01*
X109362727Y-110200500D01*
X109464587Y-110173207D01*
X109555913Y-110120480D01*
X109630480Y-110045913D01*
X109683207Y-109954587D01*
X109710500Y-109852727D01*
X109710500Y-109747273D01*
X109683207Y-109645413D01*
X109630480Y-109554087D01*
X109555913Y-109479520D01*
X109555910Y-109479518D01*
X109555909Y-109479517D01*
X109464591Y-109426795D01*
X109464588Y-109426794D01*
X109464587Y-109426793D01*
X109464585Y-109426792D01*
X109464584Y-109426792D01*
X109437289Y-109419478D01*
X109362727Y-109399500D01*
X109257273Y-109399500D01*
X109202689Y-109414125D01*
X109155415Y-109426792D01*
X109155408Y-109426795D01*
X109064090Y-109479517D01*
X108989517Y-109554090D01*
X108936795Y-109645408D01*
X108936793Y-109645413D01*
X108909500Y-109747273D01*
X108710500Y-109747273D01*
X108683207Y-109645413D01*
X108630480Y-109554087D01*
X108555913Y-109479520D01*
X108555910Y-109479518D01*
X108555909Y-109479517D01*
X108464591Y-109426795D01*
X108464588Y-109426794D01*
X108464587Y-109426793D01*
X108464585Y-109426792D01*
X108464584Y-109426792D01*
X108437289Y-109419478D01*
X108362727Y-109399500D01*
X108257273Y-109399500D01*
X108202689Y-109414125D01*
X108155415Y-109426792D01*
X108155408Y-109426795D01*
X108064090Y-109479517D01*
X107989517Y-109554090D01*
X107936795Y-109645408D01*
X107936793Y-109645413D01*
X107909500Y-109747273D01*
X107310500Y-109747273D01*
X107310500Y-109187932D01*
X107295945Y-109077375D01*
X107238964Y-108939810D01*
X107148320Y-108821680D01*
X107030190Y-108731036D01*
X106892625Y-108674055D01*
X106782068Y-108659500D01*
X105757932Y-108659500D01*
X105647374Y-108674055D01*
X105509812Y-108731035D01*
X105509808Y-108731037D01*
X105391680Y-108821679D01*
X105391675Y-108821684D01*
X105356085Y-108868067D01*
X105326921Y-108884905D01*
X105294392Y-108876188D01*
X105283073Y-108863281D01*
X105278859Y-108855982D01*
X105247021Y-108800838D01*
X105188280Y-108742097D01*
X105188279Y-108742096D01*
X105116341Y-108700562D01*
X105116337Y-108700560D01*
X105098565Y-108695798D01*
X105036095Y-108679059D01*
X105013515Y-108679059D01*
X104982402Y-108666172D01*
X104969515Y-108635059D01*
X104982402Y-108603946D01*
X105564570Y-108021778D01*
X106177884Y-107408464D01*
X107234500Y-107408464D01*
X107234500Y-107491536D01*
X107256001Y-107571778D01*
X107256003Y-107571782D01*
X107257122Y-107573720D01*
X107297538Y-107643721D01*
X107356279Y-107702462D01*
X107428222Y-107743999D01*
X107508464Y-107765500D01*
X107508466Y-107765500D01*
X107591534Y-107765500D01*
X107591536Y-107765500D01*
X107671778Y-107743999D01*
X107743721Y-107702462D01*
X107802462Y-107643721D01*
X107843999Y-107571778D01*
X107865500Y-107491536D01*
X107865500Y-107408464D01*
X107843999Y-107328222D01*
X107802462Y-107256279D01*
X107743721Y-107197538D01*
X107743720Y-107197537D01*
X107671782Y-107156003D01*
X107671778Y-107156001D01*
X107655637Y-107151676D01*
X107591536Y-107134500D01*
X107508464Y-107134500D01*
X107473014Y-107143999D01*
X107428221Y-107156001D01*
X107428217Y-107156003D01*
X107356280Y-107197537D01*
X107356279Y-107197537D01*
X107297537Y-107256279D01*
X107297537Y-107256280D01*
X107256003Y-107328217D01*
X107256001Y-107328221D01*
X107245294Y-107368179D01*
X107234500Y-107408464D01*
X106177884Y-107408464D01*
X106346753Y-107239595D01*
X106346755Y-107239595D01*
X106384872Y-107201478D01*
X106392506Y-107183047D01*
X106405501Y-107151676D01*
X106405501Y-107097770D01*
X106405501Y-107094230D01*
X106405500Y-107094216D01*
X106405500Y-105704351D01*
X106418386Y-105673239D01*
X107249387Y-104842237D01*
X107280500Y-104829351D01*
X107311613Y-104842238D01*
X107324500Y-104873351D01*
X107324500Y-104942017D01*
X107337406Y-104990183D01*
X107346001Y-105022259D01*
X107346003Y-105022263D01*
X107360596Y-105047538D01*
X107387538Y-105094202D01*
X107446279Y-105152943D01*
X107518222Y-105194480D01*
X107598464Y-105215981D01*
X107598466Y-105215981D01*
X107681534Y-105215981D01*
X107681536Y-105215981D01*
X107761778Y-105194480D01*
X107833721Y-105152943D01*
X107889387Y-105097277D01*
X107920500Y-105084390D01*
X107951613Y-105097277D01*
X107964500Y-105128390D01*
X107964500Y-106075647D01*
X107951613Y-106106760D01*
X107774435Y-106283937D01*
X107743322Y-106296824D01*
X107731936Y-106295325D01*
X107691536Y-106284500D01*
X107608464Y-106284500D01*
X107568065Y-106295325D01*
X107528221Y-106306001D01*
X107528217Y-106306003D01*
X107456280Y-106347537D01*
X107456279Y-106347537D01*
X107397537Y-106406279D01*
X107397537Y-106406280D01*
X107356003Y-106478217D01*
X107356001Y-106478221D01*
X107355614Y-106479665D01*
X107334500Y-106558464D01*
X107334500Y-106641536D01*
X107339208Y-106659105D01*
X107356001Y-106721778D01*
X107356003Y-106721782D01*
X107380502Y-106764214D01*
X107397538Y-106793721D01*
X107456279Y-106852462D01*
X107528222Y-106893999D01*
X107608464Y-106915500D01*
X107608466Y-106915500D01*
X107691534Y-106915500D01*
X107691536Y-106915500D01*
X107771778Y-106893999D01*
X107843721Y-106852462D01*
X107902462Y-106793721D01*
X107943999Y-106721778D01*
X107965500Y-106641536D01*
X107965500Y-106558464D01*
X107954674Y-106518062D01*
X107959070Y-106484675D01*
X107966058Y-106475566D01*
X108170566Y-106271058D01*
X108170569Y-106271057D01*
X108176754Y-106264872D01*
X108176755Y-106264872D01*
X108214872Y-106226755D01*
X108220913Y-106212167D01*
X108235501Y-106176953D01*
X108235501Y-106123047D01*
X108235501Y-106119507D01*
X108235500Y-106119493D01*
X108235500Y-104324352D01*
X108248387Y-104293239D01*
X109375186Y-103166440D01*
X109406299Y-103153553D01*
X109465689Y-103153553D01*
X109465691Y-103153553D01*
X109545933Y-103132052D01*
X109617876Y-103090515D01*
X109676617Y-103031774D01*
X109717395Y-102961146D01*
X109744112Y-102940645D01*
X109777500Y-102945041D01*
G37*
%TD.AperFunction*%
%TA.AperFunction,Conductor*%
G36*
X102456761Y-105048387D02*
G01*
X103867761Y-106459387D01*
X103880648Y-106490500D01*
X103867761Y-106521613D01*
X103836648Y-106534500D01*
X103808464Y-106534500D01*
X103754969Y-106548834D01*
X103728221Y-106556001D01*
X103728217Y-106556003D01*
X103653781Y-106598980D01*
X103653043Y-106597702D01*
X103625143Y-106605161D01*
X103595989Y-106588306D01*
X103588413Y-106572934D01*
X103574405Y-106520654D01*
X103532868Y-106448711D01*
X103474127Y-106389970D01*
X103474126Y-106389969D01*
X103402188Y-106348435D01*
X103402184Y-106348433D01*
X103398840Y-106347537D01*
X103321942Y-106326932D01*
X103238870Y-106326932D01*
X103185375Y-106341266D01*
X103158627Y-106348433D01*
X103158623Y-106348435D01*
X103086686Y-106389969D01*
X103086685Y-106389969D01*
X103027943Y-106448711D01*
X103027943Y-106448712D01*
X102986409Y-106520649D01*
X102986407Y-106520653D01*
X102986407Y-106520654D01*
X102964906Y-106600896D01*
X102964906Y-106683968D01*
X102986407Y-106764210D01*
X103027944Y-106836153D01*
X103086685Y-106894894D01*
X103158628Y-106936431D01*
X103238870Y-106957932D01*
X103238872Y-106957932D01*
X103321940Y-106957932D01*
X103321942Y-106957932D01*
X103402184Y-106936431D01*
X103474127Y-106894894D01*
X103474126Y-106894894D01*
X103476625Y-106893452D01*
X103477369Y-106894741D01*
X103505206Y-106887262D01*
X103534382Y-106904080D01*
X103541993Y-106919499D01*
X103556001Y-106971778D01*
X103597538Y-107043721D01*
X103656279Y-107102462D01*
X103728222Y-107143999D01*
X103808464Y-107165500D01*
X103808466Y-107165500D01*
X103891534Y-107165500D01*
X103891536Y-107165500D01*
X103971778Y-107143999D01*
X104043721Y-107102462D01*
X104102462Y-107043721D01*
X104124084Y-107006270D01*
X104150801Y-106985770D01*
X104184189Y-106990166D01*
X104204689Y-107016881D01*
X104206001Y-107021778D01*
X104247538Y-107093721D01*
X104306279Y-107152462D01*
X104378222Y-107193999D01*
X104402450Y-107200491D01*
X104429166Y-107220991D01*
X104433562Y-107254379D01*
X104422174Y-107274104D01*
X103389665Y-108306613D01*
X103358552Y-108319500D01*
X102177080Y-108319500D01*
X102177072Y-108319499D01*
X102171953Y-108319499D01*
X102118047Y-108319499D01*
X102118045Y-108319499D01*
X102082831Y-108334086D01*
X102068244Y-108340128D01*
X102030127Y-108378244D01*
X102030128Y-108378245D01*
X101758079Y-108650294D01*
X101726966Y-108663181D01*
X101721223Y-108662805D01*
X101696116Y-108659500D01*
X100671980Y-108659500D01*
X100561422Y-108674055D01*
X100423860Y-108731035D01*
X100423856Y-108731037D01*
X100305730Y-108821678D01*
X100305725Y-108821683D01*
X100279407Y-108855982D01*
X100250243Y-108872820D01*
X100217714Y-108864103D01*
X100200876Y-108834939D01*
X100200500Y-108829196D01*
X100200500Y-106798352D01*
X100213387Y-106767239D01*
X100244500Y-106754352D01*
X100275613Y-106767239D01*
X101283937Y-107775563D01*
X101296824Y-107806676D01*
X101295325Y-107818063D01*
X101284500Y-107858464D01*
X101284500Y-107941536D01*
X101306001Y-108021778D01*
X101347538Y-108093721D01*
X101406279Y-108152462D01*
X101478222Y-108193999D01*
X101558464Y-108215500D01*
X101558466Y-108215500D01*
X101641534Y-108215500D01*
X101641536Y-108215500D01*
X101721778Y-108193999D01*
X101793721Y-108152462D01*
X101852462Y-108093721D01*
X101893999Y-108021778D01*
X101915500Y-107941536D01*
X101915500Y-107858464D01*
X101893999Y-107778222D01*
X101852462Y-107706279D01*
X101793721Y-107647538D01*
X101793720Y-107647537D01*
X101721782Y-107606003D01*
X101721778Y-107606001D01*
X101706473Y-107601900D01*
X101641536Y-107584500D01*
X101558464Y-107584500D01*
X101541297Y-107589099D01*
X101518063Y-107595325D01*
X101484675Y-107590929D01*
X101475563Y-107583937D01*
X100393387Y-106501761D01*
X100380500Y-106470648D01*
X100380500Y-106244409D01*
X100999283Y-106244409D01*
X100999283Y-106327481D01*
X101020784Y-106407723D01*
X101062321Y-106479666D01*
X101121062Y-106538407D01*
X101193005Y-106579944D01*
X101273247Y-106601445D01*
X101273249Y-106601445D01*
X101356317Y-106601445D01*
X101356319Y-106601445D01*
X101436561Y-106579944D01*
X101508504Y-106538407D01*
X101567245Y-106479666D01*
X101608782Y-106407723D01*
X101630283Y-106327481D01*
X101630283Y-106244409D01*
X101608782Y-106164167D01*
X101567245Y-106092224D01*
X101508504Y-106033483D01*
X101508503Y-106033482D01*
X101436565Y-105991948D01*
X101436561Y-105991946D01*
X101356319Y-105970445D01*
X101273247Y-105970445D01*
X101219752Y-105984779D01*
X101193004Y-105991946D01*
X101193000Y-105991948D01*
X101121063Y-106033482D01*
X101121062Y-106033482D01*
X101062320Y-106092224D01*
X101062320Y-106092225D01*
X101020786Y-106164162D01*
X101020784Y-106164166D01*
X101020784Y-106164167D01*
X100999283Y-106244409D01*
X100380500Y-106244409D01*
X100380500Y-105576590D01*
X100393387Y-105545477D01*
X100424500Y-105532590D01*
X100446499Y-105538484D01*
X100515254Y-105578181D01*
X100595496Y-105599682D01*
X100595498Y-105599682D01*
X100678566Y-105599682D01*
X100678568Y-105599682D01*
X100758810Y-105578181D01*
X100830753Y-105536644D01*
X100889494Y-105477903D01*
X100931031Y-105405960D01*
X100952532Y-105325718D01*
X100952532Y-105242646D01*
X100952531Y-105242644D01*
X100952205Y-105240167D01*
X100960918Y-105207637D01*
X100990080Y-105190796D01*
X101010378Y-105193467D01*
X101010436Y-105193252D01*
X101012072Y-105193690D01*
X101012669Y-105193769D01*
X101013216Y-105193996D01*
X101013222Y-105193999D01*
X101093464Y-105215500D01*
X101093466Y-105215500D01*
X101176534Y-105215500D01*
X101176536Y-105215500D01*
X101256778Y-105193999D01*
X101328721Y-105152462D01*
X101387462Y-105093721D01*
X101408374Y-105057499D01*
X101435091Y-105036999D01*
X101446479Y-105035500D01*
X102425648Y-105035500D01*
X102456761Y-105048387D01*
G37*
%TD.AperFunction*%
%TA.AperFunction,Conductor*%
G36*
X109212976Y-101948387D02*
G01*
X109216772Y-101952716D01*
X109217537Y-101953714D01*
X109217540Y-101953718D01*
X109217543Y-101953721D01*
X109262707Y-101998886D01*
X109275594Y-102029998D01*
X109262707Y-102061110D01*
X109217542Y-102106276D01*
X109217537Y-102106282D01*
X109196628Y-102142500D01*
X109169911Y-102163001D01*
X109158523Y-102164500D01*
X108982080Y-102164500D01*
X108982072Y-102164499D01*
X108976953Y-102164499D01*
X108923047Y-102164499D01*
X108923045Y-102164499D01*
X108889918Y-102178222D01*
X108889917Y-102178221D01*
X108873245Y-102185127D01*
X108835127Y-102223244D01*
X108835128Y-102223245D01*
X108835127Y-102223246D01*
X107273246Y-103785127D01*
X107273245Y-103785128D01*
X107273244Y-103785127D01*
X107235127Y-103823244D01*
X107231778Y-103831331D01*
X107231779Y-103831332D01*
X107214499Y-103873047D01*
X107214499Y-103932071D01*
X107214500Y-103932080D01*
X107214500Y-104475647D01*
X107201613Y-104506760D01*
X106193245Y-105515128D01*
X106193244Y-105515127D01*
X106155129Y-105553243D01*
X106153007Y-105558367D01*
X106153006Y-105558368D01*
X106134500Y-105603043D01*
X106134499Y-105603049D01*
X106134499Y-105662071D01*
X106134500Y-105662080D01*
X106134500Y-107050370D01*
X106121613Y-107081483D01*
X104496415Y-108706680D01*
X104465302Y-108719567D01*
X104448464Y-108716218D01*
X104346673Y-108674055D01*
X104236116Y-108659500D01*
X103514477Y-108659500D01*
X103483364Y-108646613D01*
X103470477Y-108615500D01*
X103483364Y-108584387D01*
X103497642Y-108574848D01*
X103509659Y-108569872D01*
X103547776Y-108531755D01*
X103547776Y-108531754D01*
X103553961Y-108525569D01*
X103553962Y-108525566D01*
X104683470Y-107396057D01*
X104697738Y-107386524D01*
X104711284Y-107380913D01*
X104725872Y-107374872D01*
X104725873Y-107374870D01*
X104726053Y-107374751D01*
X104726267Y-107374708D01*
X104729879Y-107373213D01*
X104730176Y-107373930D01*
X104759082Y-107368179D01*
X104787083Y-107386887D01*
X104794500Y-107411334D01*
X104794500Y-107421536D01*
X104816001Y-107501778D01*
X104857538Y-107573721D01*
X104916279Y-107632462D01*
X104988222Y-107673999D01*
X105068464Y-107695500D01*
X105068466Y-107695500D01*
X105151534Y-107695500D01*
X105151536Y-107695500D01*
X105231778Y-107673999D01*
X105303721Y-107632462D01*
X105362462Y-107573721D01*
X105403999Y-107501778D01*
X105425500Y-107421536D01*
X105425500Y-107338464D01*
X105408922Y-107276594D01*
X105410773Y-107248368D01*
X105412325Y-107244618D01*
X105415501Y-107236953D01*
X105415501Y-107183047D01*
X105415501Y-107179507D01*
X105415500Y-107179493D01*
X105415500Y-105894351D01*
X105428386Y-105863239D01*
X106593733Y-104697891D01*
X106624845Y-104685005D01*
X106636232Y-104686503D01*
X106688464Y-104700500D01*
X106688465Y-104700500D01*
X106771534Y-104700500D01*
X106771536Y-104700500D01*
X106851778Y-104678999D01*
X106923721Y-104637462D01*
X106982462Y-104578721D01*
X107023999Y-104506778D01*
X107045500Y-104426536D01*
X107045500Y-104343464D01*
X107023999Y-104263222D01*
X106982462Y-104191279D01*
X106923721Y-104132538D01*
X106923720Y-104132537D01*
X106851782Y-104091003D01*
X106851778Y-104091001D01*
X106836693Y-104086959D01*
X106771536Y-104069500D01*
X106688464Y-104069500D01*
X106634969Y-104083834D01*
X106608221Y-104091001D01*
X106608217Y-104091003D01*
X106536280Y-104132537D01*
X106536279Y-104132537D01*
X106477537Y-104191279D01*
X106477537Y-104191280D01*
X106436003Y-104263217D01*
X106436001Y-104263221D01*
X106430950Y-104282071D01*
X106414500Y-104343464D01*
X106414500Y-104426536D01*
X106421447Y-104452462D01*
X106422155Y-104455104D01*
X106417759Y-104488492D01*
X106410767Y-104497605D01*
X105310613Y-105597760D01*
X105279500Y-105610647D01*
X105248387Y-105597760D01*
X105235500Y-105566647D01*
X105235500Y-105024352D01*
X105248387Y-104993239D01*
X108293239Y-101948387D01*
X108324352Y-101935500D01*
X109181863Y-101935500D01*
X109212976Y-101948387D01*
G37*
%TD.AperFunction*%
%TA.AperFunction,Conductor*%
G36*
X103394550Y-99713387D02*
G01*
X103407437Y-99744500D01*
X103394550Y-99775613D01*
X103380273Y-99785151D01*
X103378223Y-99785999D01*
X103306280Y-99827537D01*
X103306279Y-99827537D01*
X103247537Y-99886279D01*
X103247537Y-99886280D01*
X103206003Y-99958217D01*
X103206001Y-99958221D01*
X103206001Y-99958222D01*
X103184500Y-100038464D01*
X103184500Y-100121536D01*
X103199169Y-100176280D01*
X103206001Y-100201778D01*
X103206003Y-100201782D01*
X103228956Y-100241536D01*
X103247538Y-100273721D01*
X103306279Y-100332462D01*
X103378222Y-100373999D01*
X103458464Y-100395500D01*
X103458466Y-100395500D01*
X103541534Y-100395500D01*
X103541536Y-100395500D01*
X103606292Y-100378148D01*
X103639678Y-100382544D01*
X103660179Y-100409261D01*
X103661678Y-100420649D01*
X103661678Y-100436536D01*
X103683179Y-100516778D01*
X103724716Y-100588721D01*
X103783457Y-100647462D01*
X103855400Y-100688999D01*
X103935642Y-100710500D01*
X103935644Y-100710500D01*
X104018712Y-100710500D01*
X104018714Y-100710500D01*
X104098956Y-100688999D01*
X104170899Y-100647462D01*
X104229640Y-100588721D01*
X104271177Y-100516778D01*
X104292678Y-100436536D01*
X104292678Y-100353464D01*
X104271177Y-100273222D01*
X104229640Y-100201279D01*
X104170899Y-100142538D01*
X104170898Y-100142537D01*
X104098960Y-100101003D01*
X104098956Y-100101001D01*
X104080303Y-100096003D01*
X104018714Y-100079500D01*
X103935642Y-100079500D01*
X103870888Y-100096851D01*
X103837500Y-100092455D01*
X103816999Y-100065738D01*
X103815500Y-100054350D01*
X103815500Y-100038465D01*
X103806876Y-100006279D01*
X103793999Y-99958222D01*
X103752462Y-99886279D01*
X103693721Y-99827538D01*
X103693720Y-99827537D01*
X103621776Y-99785999D01*
X103619727Y-99785151D01*
X103595913Y-99761340D01*
X103595912Y-99727664D01*
X103619723Y-99703850D01*
X103636563Y-99700500D01*
X105141984Y-99700500D01*
X105173097Y-99713387D01*
X105185984Y-99744500D01*
X105180089Y-99766500D01*
X105156003Y-99808217D01*
X105156001Y-99808221D01*
X105150825Y-99827538D01*
X105134500Y-99888464D01*
X105134500Y-99971536D01*
X105152434Y-100038465D01*
X105156001Y-100051778D01*
X105156003Y-100051782D01*
X105179486Y-100092455D01*
X105197538Y-100123721D01*
X105256279Y-100182462D01*
X105328222Y-100223999D01*
X105408464Y-100245500D01*
X105408466Y-100245500D01*
X105491534Y-100245500D01*
X105491536Y-100245500D01*
X105571778Y-100223999D01*
X105643721Y-100182462D01*
X105702462Y-100123721D01*
X105743999Y-100051778D01*
X105765500Y-99971536D01*
X105765500Y-99888464D01*
X105743999Y-99808222D01*
X105738340Y-99798421D01*
X105719911Y-99766500D01*
X105715515Y-99733112D01*
X105736016Y-99706395D01*
X105758016Y-99700500D01*
X109510118Y-99700500D01*
X109546539Y-99700500D01*
X109553421Y-99701042D01*
X109570044Y-99703674D01*
X109620218Y-99711621D01*
X109633305Y-99715872D01*
X109690442Y-99744985D01*
X109701578Y-99753076D01*
X109746923Y-99798421D01*
X109755014Y-99809558D01*
X109784125Y-99866690D01*
X109788379Y-99879783D01*
X109798958Y-99946577D01*
X109799500Y-99953460D01*
X109799500Y-101537086D01*
X109786613Y-101568199D01*
X109755500Y-101581086D01*
X109724387Y-101568199D01*
X109663722Y-101507534D01*
X109591784Y-101466000D01*
X109591780Y-101465998D01*
X109511538Y-101444497D01*
X109428466Y-101444497D01*
X109374971Y-101458831D01*
X109348223Y-101465998D01*
X109348219Y-101466000D01*
X109276282Y-101507534D01*
X109276281Y-101507534D01*
X109217539Y-101566276D01*
X109217539Y-101566277D01*
X109174561Y-101640716D01*
X109173564Y-101640140D01*
X109152554Y-101661151D01*
X109135717Y-101664500D01*
X108282080Y-101664500D01*
X108282072Y-101664499D01*
X108276953Y-101664499D01*
X108223047Y-101664499D01*
X108223045Y-101664499D01*
X108187831Y-101679086D01*
X108173244Y-101685128D01*
X108135127Y-101723244D01*
X108135128Y-101723245D01*
X108135127Y-101723246D01*
X105023246Y-104835127D01*
X105023245Y-104835128D01*
X105023244Y-104835127D01*
X104985129Y-104873243D01*
X104985129Y-104873244D01*
X104985128Y-104873246D01*
X104964500Y-104923043D01*
X104964499Y-104923049D01*
X104964499Y-104982071D01*
X104964500Y-104982080D01*
X104964500Y-105136123D01*
X104951613Y-105167236D01*
X104920500Y-105180123D01*
X104889387Y-105167236D01*
X104882395Y-105158123D01*
X104862532Y-105123721D01*
X104852462Y-105106279D01*
X104793721Y-105047538D01*
X104793720Y-105047537D01*
X104721782Y-105006003D01*
X104721778Y-105006001D01*
X104641536Y-104984500D01*
X104558464Y-104984500D01*
X104504969Y-104998834D01*
X104478221Y-105006001D01*
X104478217Y-105006003D01*
X104406280Y-105047537D01*
X104406279Y-105047537D01*
X104347537Y-105106279D01*
X104347537Y-105106280D01*
X104306003Y-105178217D01*
X104306001Y-105178221D01*
X104300594Y-105198401D01*
X104284500Y-105258464D01*
X104284500Y-105341536D01*
X104301763Y-105405960D01*
X104306001Y-105421778D01*
X104306003Y-105421782D01*
X104347537Y-105493719D01*
X104347537Y-105493720D01*
X104406279Y-105552462D01*
X104447031Y-105575991D01*
X104467532Y-105602708D01*
X104463136Y-105636096D01*
X104423146Y-105705359D01*
X104423144Y-105705364D01*
X104423144Y-105705365D01*
X104401643Y-105785607D01*
X104401643Y-105868679D01*
X104423144Y-105948921D01*
X104464681Y-106020864D01*
X104523422Y-106079605D01*
X104595365Y-106121142D01*
X104675607Y-106142643D01*
X104675609Y-106142643D01*
X104758677Y-106142643D01*
X104758679Y-106142643D01*
X104838921Y-106121142D01*
X104898501Y-106086742D01*
X104931887Y-106082347D01*
X104958605Y-106102847D01*
X104964500Y-106124848D01*
X104964500Y-106713552D01*
X104951613Y-106744665D01*
X104951612Y-106744665D01*
X104874103Y-106822173D01*
X104842991Y-106835060D01*
X104811878Y-106822172D01*
X104800490Y-106802448D01*
X104793999Y-106778222D01*
X104752462Y-106706279D01*
X104693721Y-106647538D01*
X104693720Y-106647537D01*
X104621782Y-106606003D01*
X104621778Y-106606001D01*
X104604775Y-106601445D01*
X104541536Y-106584500D01*
X104458464Y-106584500D01*
X104444260Y-106588306D01*
X104418063Y-106595325D01*
X104384675Y-106590929D01*
X104375563Y-106583937D01*
X102614872Y-104823246D01*
X102614872Y-104823245D01*
X102576755Y-104785128D01*
X102576753Y-104785127D01*
X102560081Y-104778221D01*
X102560080Y-104778221D01*
X102526956Y-104764500D01*
X102526954Y-104764499D01*
X102526953Y-104764499D01*
X102473047Y-104764499D01*
X102467928Y-104764499D01*
X102467920Y-104764500D01*
X101446479Y-104764500D01*
X101415366Y-104751613D01*
X101408374Y-104742500D01*
X101404782Y-104736279D01*
X101387462Y-104706279D01*
X101358720Y-104677537D01*
X101328725Y-104647541D01*
X101328719Y-104647537D01*
X101256782Y-104606003D01*
X101256778Y-104606001D01*
X101255289Y-104605602D01*
X101176536Y-104584500D01*
X101125447Y-104584500D01*
X101094334Y-104571613D01*
X101081447Y-104540500D01*
X101094334Y-104509387D01*
X101345257Y-104258464D01*
X104284500Y-104258464D01*
X104284500Y-104341536D01*
X104306001Y-104421778D01*
X104347538Y-104493721D01*
X104406279Y-104552462D01*
X104478222Y-104593999D01*
X104558464Y-104615500D01*
X104558466Y-104615500D01*
X104641534Y-104615500D01*
X104641536Y-104615500D01*
X104721778Y-104593999D01*
X104793721Y-104552462D01*
X104852462Y-104493721D01*
X104893999Y-104421778D01*
X104915500Y-104341536D01*
X104915500Y-104258464D01*
X104893999Y-104178222D01*
X104852462Y-104106279D01*
X104793721Y-104047538D01*
X104793720Y-104047537D01*
X104721782Y-104006003D01*
X104721778Y-104006001D01*
X104641536Y-103984500D01*
X104558464Y-103984500D01*
X104504969Y-103998834D01*
X104478221Y-104006001D01*
X104478217Y-104006003D01*
X104406280Y-104047537D01*
X104406279Y-104047537D01*
X104347537Y-104106279D01*
X104347537Y-104106280D01*
X104306003Y-104178217D01*
X104306001Y-104178221D01*
X104302502Y-104191279D01*
X104284500Y-104258464D01*
X101345257Y-104258464D01*
X101810760Y-103792961D01*
X103570159Y-103792961D01*
X103570159Y-103876033D01*
X103591660Y-103956275D01*
X103633197Y-104028218D01*
X103691938Y-104086959D01*
X103763881Y-104128496D01*
X103844123Y-104149997D01*
X103844125Y-104149997D01*
X103927193Y-104149997D01*
X103927195Y-104149997D01*
X104007437Y-104128496D01*
X104079380Y-104086959D01*
X104138121Y-104028218D01*
X104179658Y-103956275D01*
X104201159Y-103876033D01*
X104201159Y-103792961D01*
X104179658Y-103712719D01*
X104138121Y-103640776D01*
X104079380Y-103582035D01*
X104079379Y-103582034D01*
X104007441Y-103540500D01*
X104007437Y-103540498D01*
X103927195Y-103518997D01*
X103844123Y-103518997D01*
X103790628Y-103533331D01*
X103763880Y-103540498D01*
X103763876Y-103540500D01*
X103691939Y-103582034D01*
X103691938Y-103582034D01*
X103633196Y-103640776D01*
X103633196Y-103640777D01*
X103591662Y-103712714D01*
X103591660Y-103712718D01*
X103591660Y-103712719D01*
X103570159Y-103792961D01*
X101810760Y-103792961D01*
X101844757Y-103758964D01*
X102215977Y-103387744D01*
X102599190Y-103004531D01*
X103516306Y-103004531D01*
X103516306Y-103087603D01*
X103534633Y-103156001D01*
X103537807Y-103167845D01*
X103537809Y-103167849D01*
X103559997Y-103206279D01*
X103579344Y-103239788D01*
X103638085Y-103298529D01*
X103710028Y-103340066D01*
X103790270Y-103361567D01*
X103790272Y-103361567D01*
X103873340Y-103361567D01*
X103873342Y-103361567D01*
X103884922Y-103358464D01*
X104784500Y-103358464D01*
X104784500Y-103441536D01*
X104806001Y-103521778D01*
X104847538Y-103593721D01*
X104906279Y-103652462D01*
X104978222Y-103693999D01*
X105058464Y-103715500D01*
X105058466Y-103715500D01*
X105141534Y-103715500D01*
X105141536Y-103715500D01*
X105221778Y-103693999D01*
X105293721Y-103652462D01*
X105352462Y-103593721D01*
X105393999Y-103521778D01*
X105415500Y-103441536D01*
X105415500Y-103358464D01*
X105393999Y-103278222D01*
X105352462Y-103206279D01*
X105293721Y-103147538D01*
X105293720Y-103147537D01*
X105221782Y-103106003D01*
X105221778Y-103106001D01*
X105141536Y-103084500D01*
X105058464Y-103084500D01*
X105023014Y-103093999D01*
X104978221Y-103106001D01*
X104978217Y-103106003D01*
X104906280Y-103147537D01*
X104906279Y-103147537D01*
X104847537Y-103206279D01*
X104847537Y-103206280D01*
X104806003Y-103278217D01*
X104806001Y-103278221D01*
X104806001Y-103278222D01*
X104784500Y-103358464D01*
X103884922Y-103358464D01*
X103953584Y-103340066D01*
X103976022Y-103327110D01*
X103992713Y-103317475D01*
X104002816Y-103311641D01*
X104025527Y-103298529D01*
X104084268Y-103239788D01*
X104125805Y-103167845D01*
X104147306Y-103087603D01*
X104147306Y-103004531D01*
X104125805Y-102924289D01*
X104084268Y-102852346D01*
X104025527Y-102793605D01*
X104025526Y-102793604D01*
X103964663Y-102758464D01*
X104264500Y-102758464D01*
X104264500Y-102841536D01*
X104282563Y-102908947D01*
X104286001Y-102921778D01*
X104286003Y-102921782D01*
X104313692Y-102969740D01*
X104327538Y-102993721D01*
X104386279Y-103052462D01*
X104458222Y-103093999D01*
X104538464Y-103115500D01*
X104538466Y-103115500D01*
X104621534Y-103115500D01*
X104621536Y-103115500D01*
X104701778Y-103093999D01*
X104773721Y-103052462D01*
X104832462Y-102993721D01*
X104873999Y-102921778D01*
X104895500Y-102841536D01*
X104895500Y-102758464D01*
X104873999Y-102678222D01*
X104832462Y-102606279D01*
X104773721Y-102547538D01*
X104773720Y-102547537D01*
X104701782Y-102506003D01*
X104701778Y-102506001D01*
X104621536Y-102484500D01*
X104538464Y-102484500D01*
X104484969Y-102498834D01*
X104458221Y-102506001D01*
X104458217Y-102506003D01*
X104386280Y-102547537D01*
X104386279Y-102547537D01*
X104327537Y-102606279D01*
X104327537Y-102606280D01*
X104286003Y-102678217D01*
X104286001Y-102678221D01*
X104286001Y-102678222D01*
X104264500Y-102758464D01*
X103964663Y-102758464D01*
X103953588Y-102752070D01*
X103953584Y-102752068D01*
X103873342Y-102730567D01*
X103790270Y-102730567D01*
X103736775Y-102744901D01*
X103710027Y-102752068D01*
X103710023Y-102752070D01*
X103638086Y-102793604D01*
X103638085Y-102793604D01*
X103579343Y-102852346D01*
X103579343Y-102852347D01*
X103537809Y-102924284D01*
X103537807Y-102924288D01*
X103537807Y-102924289D01*
X103516306Y-103004531D01*
X102599190Y-103004531D01*
X102629774Y-102973947D01*
X102631754Y-102971968D01*
X102631755Y-102971968D01*
X102669872Y-102933851D01*
X102680186Y-102908950D01*
X102690501Y-102884049D01*
X102690501Y-102830143D01*
X102690501Y-102826603D01*
X102690500Y-102826589D01*
X102690500Y-102369352D01*
X102703387Y-102338239D01*
X103653239Y-101388387D01*
X103684352Y-101375500D01*
X104363521Y-101375500D01*
X104394634Y-101388387D01*
X104401626Y-101397500D01*
X104422535Y-101433717D01*
X104422539Y-101433722D01*
X104481274Y-101492458D01*
X104481277Y-101492460D01*
X104481279Y-101492462D01*
X104553222Y-101533999D01*
X104633464Y-101555500D01*
X104633466Y-101555500D01*
X104716534Y-101555500D01*
X104716536Y-101555500D01*
X104796778Y-101533999D01*
X104868721Y-101492462D01*
X104927462Y-101433721D01*
X104968999Y-101361778D01*
X104990500Y-101281536D01*
X104990500Y-101198464D01*
X104968999Y-101118222D01*
X104927462Y-101046279D01*
X104868721Y-100987538D01*
X104868720Y-100987537D01*
X104796782Y-100946003D01*
X104796778Y-100946001D01*
X104716536Y-100924500D01*
X104633464Y-100924500D01*
X104579969Y-100938834D01*
X104553221Y-100946001D01*
X104553217Y-100946003D01*
X104481280Y-100987537D01*
X104481274Y-100987541D01*
X104422539Y-101046277D01*
X104422535Y-101046282D01*
X104401626Y-101082500D01*
X104374909Y-101103001D01*
X104363521Y-101104500D01*
X103642080Y-101104500D01*
X103642072Y-101104499D01*
X103636953Y-101104499D01*
X103583047Y-101104499D01*
X103583045Y-101104499D01*
X103583043Y-101104500D01*
X103533246Y-101125127D01*
X103533243Y-101125129D01*
X103495127Y-101163244D01*
X103495128Y-101163245D01*
X103495127Y-101163246D01*
X102478246Y-102180127D01*
X102478245Y-102180128D01*
X102478244Y-102180127D01*
X102440128Y-102218244D01*
X102434085Y-102232830D01*
X102434086Y-102232831D01*
X102419499Y-102268045D01*
X102419499Y-102327071D01*
X102419500Y-102327080D01*
X102419500Y-102782744D01*
X102406613Y-102813857D01*
X100979216Y-104241253D01*
X100948103Y-104254140D01*
X100916990Y-104241253D01*
X100905603Y-104221530D01*
X100893999Y-104178222D01*
X100852462Y-104106279D01*
X100793721Y-104047538D01*
X100793720Y-104047537D01*
X100721782Y-104006003D01*
X100721778Y-104006001D01*
X100641536Y-103984500D01*
X100558464Y-103984500D01*
X100504969Y-103998834D01*
X100478221Y-104006001D01*
X100478217Y-104006003D01*
X100406280Y-104047537D01*
X100406279Y-104047537D01*
X100347537Y-104106279D01*
X100347537Y-104106280D01*
X100306003Y-104178217D01*
X100306001Y-104178221D01*
X100302502Y-104191279D01*
X100289037Y-104241534D01*
X100287001Y-104249132D01*
X100266500Y-104275849D01*
X100233112Y-104280245D01*
X100206395Y-104259744D01*
X100200500Y-104237744D01*
X100200500Y-103512255D01*
X100213387Y-103481142D01*
X100244500Y-103468255D01*
X100275613Y-103481142D01*
X100286999Y-103500864D01*
X100306001Y-103571778D01*
X100347538Y-103643721D01*
X100406279Y-103702462D01*
X100478222Y-103743999D01*
X100558464Y-103765500D01*
X100558466Y-103765500D01*
X100641534Y-103765500D01*
X100641536Y-103765500D01*
X100721778Y-103743999D01*
X100793721Y-103702462D01*
X100852462Y-103643721D01*
X100893999Y-103571778D01*
X100915500Y-103491536D01*
X100915500Y-103408464D01*
X100893999Y-103328222D01*
X100852462Y-103256279D01*
X100793721Y-103197538D01*
X100793720Y-103197537D01*
X100721782Y-103156003D01*
X100721778Y-103156001D01*
X100712642Y-103153553D01*
X100641536Y-103134500D01*
X100558464Y-103134500D01*
X100509810Y-103147537D01*
X100478221Y-103156001D01*
X100478217Y-103156003D01*
X100406280Y-103197537D01*
X100406279Y-103197537D01*
X100347537Y-103256279D01*
X100347537Y-103256280D01*
X100306003Y-103328217D01*
X100306001Y-103328221D01*
X100287001Y-103399132D01*
X100266500Y-103425849D01*
X100233112Y-103430245D01*
X100206395Y-103409744D01*
X100200500Y-103387744D01*
X100200500Y-102299375D01*
X101107607Y-102299375D01*
X101107607Y-102382447D01*
X101129108Y-102462689D01*
X101170645Y-102534632D01*
X101229386Y-102593373D01*
X101301329Y-102634910D01*
X101381571Y-102656411D01*
X101381573Y-102656411D01*
X101464641Y-102656411D01*
X101464643Y-102656411D01*
X101544885Y-102634910D01*
X101616828Y-102593373D01*
X101675569Y-102534632D01*
X101717106Y-102462689D01*
X101738607Y-102382447D01*
X101738607Y-102299375D01*
X101717106Y-102219133D01*
X101675569Y-102147190D01*
X101616828Y-102088449D01*
X101616827Y-102088448D01*
X101544889Y-102046914D01*
X101544885Y-102046912D01*
X101464643Y-102025411D01*
X101381571Y-102025411D01*
X101328076Y-102039745D01*
X101301328Y-102046912D01*
X101301324Y-102046914D01*
X101229387Y-102088448D01*
X101229386Y-102088448D01*
X101170644Y-102147190D01*
X101170644Y-102147191D01*
X101129110Y-102219128D01*
X101129108Y-102219132D01*
X101125437Y-102232832D01*
X101107607Y-102299375D01*
X100200500Y-102299375D01*
X100200500Y-100622909D01*
X100213387Y-100591796D01*
X100244500Y-100578909D01*
X100275613Y-100591796D01*
X100326279Y-100642462D01*
X100398222Y-100683999D01*
X100478464Y-100705500D01*
X100478466Y-100705500D01*
X100561534Y-100705500D01*
X100561536Y-100705500D01*
X100641778Y-100683999D01*
X100713721Y-100642462D01*
X100772462Y-100583721D01*
X100813999Y-100511778D01*
X100835500Y-100431536D01*
X100835500Y-100348464D01*
X100830141Y-100328464D01*
X101354500Y-100328464D01*
X101354500Y-100411536D01*
X101361199Y-100436536D01*
X101376001Y-100491778D01*
X101376003Y-100491782D01*
X101389697Y-100515500D01*
X101417538Y-100563721D01*
X101476279Y-100622462D01*
X101548222Y-100663999D01*
X101628464Y-100685500D01*
X101628466Y-100685500D01*
X101711534Y-100685500D01*
X101711536Y-100685500D01*
X101791778Y-100663999D01*
X101863721Y-100622462D01*
X101922462Y-100563721D01*
X101946572Y-100521960D01*
X101973288Y-100501459D01*
X101996061Y-100501459D01*
X102048462Y-100515500D01*
X102048465Y-100515500D01*
X102131532Y-100515500D01*
X102131534Y-100515500D01*
X102211776Y-100493999D01*
X102283719Y-100452462D01*
X102342460Y-100393721D01*
X102383997Y-100321778D01*
X102405498Y-100241536D01*
X102405498Y-100158464D01*
X102383997Y-100078222D01*
X102342460Y-100006279D01*
X102283719Y-99947538D01*
X102283718Y-99947537D01*
X102211780Y-99906003D01*
X102211776Y-99906001D01*
X102131534Y-99884500D01*
X102048462Y-99884500D01*
X101994967Y-99898834D01*
X101968219Y-99906001D01*
X101968215Y-99906003D01*
X101896278Y-99947537D01*
X101896277Y-99947537D01*
X101837535Y-100006279D01*
X101837535Y-100006280D01*
X101813425Y-100048039D01*
X101786708Y-100068540D01*
X101763933Y-100068540D01*
X101711536Y-100054500D01*
X101628464Y-100054500D01*
X101586524Y-100065738D01*
X101548221Y-100076001D01*
X101548217Y-100076003D01*
X101476280Y-100117537D01*
X101476279Y-100117537D01*
X101417537Y-100176279D01*
X101417537Y-100176280D01*
X101376003Y-100248217D01*
X101376001Y-100248221D01*
X101369302Y-100273221D01*
X101354500Y-100328464D01*
X100830141Y-100328464D01*
X100813999Y-100268222D01*
X100772462Y-100196279D01*
X100713721Y-100137538D01*
X100713720Y-100137537D01*
X100641782Y-100096003D01*
X100641778Y-100096001D01*
X100628544Y-100092455D01*
X100561536Y-100074500D01*
X100478464Y-100074500D01*
X100424969Y-100088834D01*
X100398221Y-100096001D01*
X100398217Y-100096003D01*
X100326280Y-100137537D01*
X100326279Y-100137537D01*
X100275613Y-100188204D01*
X100244500Y-100201091D01*
X100213387Y-100188204D01*
X100200500Y-100157091D01*
X100200500Y-99953460D01*
X100201042Y-99946578D01*
X100207468Y-99906003D01*
X100211621Y-99879779D01*
X100215871Y-99866696D01*
X100244987Y-99809554D01*
X100253073Y-99798424D01*
X100298424Y-99753073D01*
X100309554Y-99744987D01*
X100366696Y-99715871D01*
X100379779Y-99711621D01*
X100432857Y-99703215D01*
X100446579Y-99701042D01*
X100453461Y-99700500D01*
X100489882Y-99700500D01*
X103363437Y-99700500D01*
X103394550Y-99713387D01*
G37*
%TD.AperFunction*%
%TA.AperFunction,Conductor*%
G36*
X109189636Y-102448387D02*
G01*
X109196628Y-102457500D01*
X109217537Y-102493717D01*
X109217538Y-102493718D01*
X109217540Y-102493721D01*
X109239956Y-102516137D01*
X109252843Y-102547249D01*
X109239956Y-102578362D01*
X109230849Y-102585350D01*
X109230440Y-102585585D01*
X109230434Y-102585590D01*
X109171692Y-102644332D01*
X109171692Y-102644333D01*
X109130158Y-102716270D01*
X109130156Y-102716274D01*
X109130156Y-102716275D01*
X109108655Y-102796517D01*
X109108655Y-102879589D01*
X109123194Y-102933849D01*
X109130155Y-102959828D01*
X109130157Y-102959833D01*
X109138306Y-102973947D01*
X109142700Y-103007335D01*
X109131313Y-103027059D01*
X108023246Y-104135127D01*
X108023245Y-104135128D01*
X108023244Y-104135127D01*
X107985127Y-104173244D01*
X107981778Y-104181331D01*
X107977658Y-104191280D01*
X107964499Y-104223047D01*
X107964499Y-104282071D01*
X107964500Y-104282080D01*
X107964500Y-104672572D01*
X107951613Y-104703685D01*
X107920500Y-104716572D01*
X107889387Y-104703685D01*
X107833720Y-104648018D01*
X107761782Y-104606484D01*
X107761778Y-104606482D01*
X107758494Y-104605602D01*
X107681536Y-104584981D01*
X107598464Y-104584981D01*
X107564809Y-104593999D01*
X107540889Y-104600408D01*
X107507501Y-104596012D01*
X107487000Y-104569295D01*
X107485501Y-104557907D01*
X107485501Y-104519507D01*
X107485500Y-104519493D01*
X107485500Y-103974352D01*
X107498387Y-103943239D01*
X108993239Y-102448387D01*
X109024352Y-102435500D01*
X109158523Y-102435500D01*
X109189636Y-102448387D01*
G37*
%TD.AperFunction*%
%TD*%
M02*
