%TF.GenerationSoftware,KiCad,Pcbnew,10.0.5*%
%TF.CreationDate,2026-08-11T17:37:50+02:00*%
%TF.ProjectId,OpenRX-Lite,4f70656e-5258-42d4-9c69-74652e6b6963,rev?*%
%TF.SameCoordinates,Original*%
%TF.FileFunction,Copper,L3,Inr*%
%TF.FilePolarity,Positive*%
%FSLAX46Y46*%
G04 Gerber Fmt 4.6, Leading zero omitted, Abs format (unit mm)*
G04 Created by KiCad (PCBNEW 10.0.5) date 2026-08-11 17:37:50*
%MOMM*%
%LPD*%
G01*
G04 APERTURE LIST*
G04 Aperture macros list*
%AMRoundRect*
0 Rectangle with rounded corners*
0 $1 Rounding radius*
0 $2 $3 $4 $5 $6 $7 $8 $9 X,Y pos of 4 corners*
0 Add a 4 corners polygon primitive as box body*
4,1,4,$2,$3,$4,$5,$6,$7,$8,$9,$2,$3,0*
0 Add four circle primitives for the rounded corners*
1,1,$1+$1,$2,$3*
1,1,$1+$1,$4,$5*
1,1,$1+$1,$6,$7*
1,1,$1+$1,$8,$9*
0 Add four rect primitives between the rounded corners*
20,1,$1+$1,$2,$3,$4,$5,0*
20,1,$1+$1,$4,$5,$6,$7,0*
20,1,$1+$1,$6,$7,$8,$9,0*
20,1,$1+$1,$8,$9,$2,$3,0*%
G04 Aperture macros list end*
%TA.AperFunction,ComponentPad*%
%ADD10C,0.600000*%
%TD*%
%TA.AperFunction,ComponentPad*%
%ADD11RoundRect,0.475000X-0.475000X-1.775000X0.475000X-1.775000X0.475000X1.775000X-0.475000X1.775000X0*%
%TD*%
%TA.AperFunction,ViaPad*%
%ADD12C,0.450000*%
%TD*%
%TA.AperFunction,Conductor*%
%ADD13C,0.200000*%
%TD*%
%TA.AperFunction,Conductor*%
%ADD14C,0.300000*%
%TD*%
G04 APERTURE END LIST*
D10*
%TO.N,N/C*%
%TO.C,TP4*%
X108310000Y-109800000D03*
X108310000Y-112200000D03*
D11*
%TO.N,GND*%
X108810000Y-111000000D03*
D10*
%TO.N,N/C*%
X109310000Y-109800000D03*
X109310000Y-112200000D03*
%TD*%
%TO.N,N/C*%
%TO.C,TP2*%
X103224048Y-109800000D03*
X103224048Y-112200000D03*
D11*
%TO.N,Net-(U1-U0TXD)*%
X103724048Y-111000000D03*
D10*
%TO.N,N/C*%
X104224048Y-109800000D03*
X104224048Y-112200000D03*
%TD*%
%TO.N,N/C*%
%TO.C,TP1*%
X100684048Y-109800000D03*
X100684048Y-112200000D03*
D11*
%TO.N,Net-(U1-U0RXD)*%
X101184048Y-111000000D03*
D10*
%TO.N,N/C*%
X101684048Y-109800000D03*
X101684048Y-112200000D03*
%TD*%
%TO.N,N/C*%
%TO.C,TP3*%
X105770000Y-109800000D03*
X105770000Y-112200000D03*
D11*
%TO.N,+5V*%
X106270000Y-111000000D03*
D10*
%TO.N,N/C*%
X106770000Y-109800000D03*
X106770000Y-112200000D03*
%TD*%
D12*
%TO.N,GND*%
X106765763Y-100815000D03*
X107750000Y-102950000D03*
X105880000Y-106000000D03*
X103146400Y-102448235D03*
X101895000Y-102900000D03*
X107550000Y-108950000D03*
X108350000Y-103450000D03*
X104256587Y-100860000D03*
X108329999Y-106452117D03*
X107150000Y-103550000D03*
X101358504Y-108382993D03*
X100950000Y-100950000D03*
X108250000Y-107700000D03*
X106150000Y-103350000D03*
X105400000Y-100950000D03*
X102500000Y-107950000D03*
X108450000Y-102200000D03*
X101780000Y-105750000D03*
X105220000Y-102430000D03*
X108683553Y-100815000D03*
X105520000Y-101610000D03*
X105800000Y-102650000D03*
X102950000Y-106150000D03*
X102250000Y-101590000D03*
X101380000Y-101270000D03*
%TO.N,+3V3*%
X105450000Y-99930000D03*
X104600000Y-105300000D03*
X105100000Y-103400000D03*
X101423107Y-102340911D03*
X107550000Y-107450000D03*
X103280406Y-106642432D03*
X109570000Y-104200000D03*
X104994559Y-108994559D03*
X103500000Y-100080000D03*
X102089998Y-100200000D03*
X101670000Y-100370000D03*
%TO.N,/ESP32-C3 + SX1281 Core (UFL)/XTAL_P*%
X109575000Y-104930000D03*
%TO.N,/ESP32-C3 + SX1281 Core (UFL)/BOOT*%
X101600000Y-107900000D03*
X104675000Y-101240000D03*
%TO.N,Net-(U1-U0TXD)*%
X109470002Y-102300000D03*
%TO.N,Net-(C25-Pad1)*%
X107640000Y-104900481D03*
%TO.N,/ESP32-C3 + SX1281 Core (UFL)/LED*%
X103977178Y-100395000D03*
%TO.N,/ESP32-C3 + SX1281 Core (UFL)/RST*%
X104500000Y-106900000D03*
X101135000Y-104900000D03*
%TO.N,Net-(U1-U0RXD)*%
X109470002Y-101759997D03*
%TO.N,Net-(U3-VR_PA)*%
X100600000Y-103450000D03*
%TO.N,Net-(U3-DCC_FB)*%
X103850000Y-106850000D03*
X100600000Y-104300000D03*
%TO.N,Net-(U3-XTA)*%
X100637032Y-105284182D03*
%TO.N,/ESP32-C3 + SX1281 Core (UFL)/BUSY*%
X101314783Y-106285945D03*
%TO.N,/ESP32-C3 + SX1281 Core (UFL)/DIO1*%
X106730000Y-104385000D03*
X105110000Y-107380000D03*
%TO.N,Net-(U3-DCC_SW)*%
X104717143Y-105827143D03*
%TO.N,/ESP32-C3 + SX1281 Core (UFL)/MISO*%
X103885659Y-103834497D03*
%TO.N,/ESP32-C3 + SX1281 Core (UFL)/MOSI*%
X104600000Y-104300000D03*
%TO.N,/ESP32-C3 + SX1281 Core (UFL)/SCK*%
X104580000Y-102800000D03*
%TO.N,/ESP32-C3 + SX1281 Core (UFL)/NSS*%
X103831806Y-103046067D03*
%TO.N,/ESP32-C3 + SX1281 Core (UFL)/XTAL_N*%
X109424155Y-102838053D03*
X107650000Y-106600000D03*
%TO.N,+5V*%
X100520000Y-100390000D03*
%TD*%
%TO.N,Net-(U3-DCC_FB)*%
D13*
X100600000Y-104300000D02*
X101800000Y-104300000D01*
X101800000Y-104300000D02*
X103850000Y-106350000D01*
X103850000Y-106350000D02*
X103850000Y-106850000D01*
%TO.N,+5V*%
D14*
X104590000Y-106440000D02*
X104827610Y-106440000D01*
X100520000Y-100390000D02*
X100450000Y-100460000D01*
X106270000Y-107882390D02*
X106270000Y-109550000D01*
X104827610Y-106440000D02*
X106270000Y-107882390D01*
X100450000Y-102300000D02*
X104590000Y-106440000D01*
X100450000Y-100460000D02*
X100450000Y-102300000D01*
%TD*%
%TA.AperFunction,Conductor*%
%TO.N,+3V3*%
G36*
X100275613Y-104331142D02*
G01*
X100286999Y-104350864D01*
X100306001Y-104421778D01*
X100347538Y-104493721D01*
X100406279Y-104552462D01*
X100478222Y-104593999D01*
X100558464Y-104615500D01*
X100558466Y-104615500D01*
X100641534Y-104615500D01*
X100641536Y-104615500D01*
X100721778Y-104593999D01*
X100793721Y-104552462D01*
X100842795Y-104503388D01*
X100873908Y-104490500D01*
X101702867Y-104490500D01*
X101733980Y-104503387D01*
X102989980Y-105759387D01*
X103002867Y-105790500D01*
X102989980Y-105821613D01*
X102958867Y-105834500D01*
X102908464Y-105834500D01*
X102854969Y-105848834D01*
X102828221Y-105856001D01*
X102828217Y-105856003D01*
X102756280Y-105897537D01*
X102756279Y-105897537D01*
X102697537Y-105956279D01*
X102697537Y-105956280D01*
X102656003Y-106028217D01*
X102656001Y-106028221D01*
X102647739Y-106059057D01*
X102634500Y-106108464D01*
X102634500Y-106191536D01*
X102648668Y-106244410D01*
X102656001Y-106271778D01*
X102656003Y-106271782D01*
X102675604Y-106305731D01*
X102697538Y-106343721D01*
X102756279Y-106402462D01*
X102828222Y-106443999D01*
X102908464Y-106465500D01*
X102908466Y-106465500D01*
X102991534Y-106465500D01*
X102991536Y-106465500D01*
X103071778Y-106443999D01*
X103143721Y-106402462D01*
X103202462Y-106343721D01*
X103243999Y-106271778D01*
X103265500Y-106191536D01*
X103265500Y-106141133D01*
X103278387Y-106110020D01*
X103309500Y-106097133D01*
X103340613Y-106110020D01*
X103646613Y-106416020D01*
X103659500Y-106447133D01*
X103659500Y-106576091D01*
X103646613Y-106607204D01*
X103597537Y-106656279D01*
X103597537Y-106656280D01*
X103556003Y-106728217D01*
X103556001Y-106728221D01*
X103551206Y-106746116D01*
X103534500Y-106808464D01*
X103534500Y-106891536D01*
X103556001Y-106971778D01*
X103597538Y-107043721D01*
X103656279Y-107102462D01*
X103728222Y-107143999D01*
X103808464Y-107165500D01*
X103808466Y-107165500D01*
X103891534Y-107165500D01*
X103891536Y-107165500D01*
X103971778Y-107143999D01*
X104043721Y-107102462D01*
X104102462Y-107043721D01*
X104124084Y-107006270D01*
X104150801Y-106985770D01*
X104184189Y-106990166D01*
X104204689Y-107016881D01*
X104206001Y-107021778D01*
X104247538Y-107093721D01*
X104306279Y-107152462D01*
X104378222Y-107193999D01*
X104458464Y-107215500D01*
X104458466Y-107215500D01*
X104541534Y-107215500D01*
X104541536Y-107215500D01*
X104621778Y-107193999D01*
X104693721Y-107152462D01*
X104752462Y-107093721D01*
X104793999Y-107021778D01*
X104815500Y-106941536D01*
X104815500Y-106874235D01*
X104828387Y-106843122D01*
X104859500Y-106830235D01*
X104890613Y-106843122D01*
X105048903Y-107001412D01*
X105061790Y-107032525D01*
X105048903Y-107063638D01*
X105029179Y-107075025D01*
X104988227Y-107085999D01*
X104988217Y-107086003D01*
X104916280Y-107127537D01*
X104916279Y-107127537D01*
X104857537Y-107186279D01*
X104857537Y-107186280D01*
X104816003Y-107258217D01*
X104816001Y-107258221D01*
X104816001Y-107258222D01*
X104794500Y-107338464D01*
X104794500Y-107421536D01*
X104805026Y-107460820D01*
X104816001Y-107501778D01*
X104816003Y-107501782D01*
X104818600Y-107506280D01*
X104857538Y-107573721D01*
X104916279Y-107632462D01*
X104988222Y-107673999D01*
X105068464Y-107695500D01*
X105068466Y-107695500D01*
X105151534Y-107695500D01*
X105151536Y-107695500D01*
X105231778Y-107673999D01*
X105303721Y-107632462D01*
X105362462Y-107573721D01*
X105403999Y-107501778D01*
X105414974Y-107460818D01*
X105435474Y-107434103D01*
X105468862Y-107429707D01*
X105488587Y-107441095D01*
X106016613Y-107969121D01*
X106029500Y-108000234D01*
X106029500Y-108615500D01*
X106016613Y-108646613D01*
X105985500Y-108659500D01*
X105757932Y-108659500D01*
X105647374Y-108674055D01*
X105509812Y-108731035D01*
X105509808Y-108731037D01*
X105391682Y-108821678D01*
X105391678Y-108821682D01*
X105301037Y-108939808D01*
X105301035Y-108939812D01*
X105244055Y-109077374D01*
X105229500Y-109187932D01*
X105229500Y-110755500D01*
X105216613Y-110786613D01*
X105185500Y-110799500D01*
X104808548Y-110799500D01*
X104777435Y-110786613D01*
X104764548Y-110755500D01*
X104764548Y-109187932D01*
X104759810Y-109151945D01*
X104749993Y-109077375D01*
X104693012Y-108939810D01*
X104602368Y-108821680D01*
X104484238Y-108731036D01*
X104346673Y-108674055D01*
X104236116Y-108659500D01*
X103211980Y-108659500D01*
X103101422Y-108674055D01*
X102963860Y-108731035D01*
X102963856Y-108731037D01*
X102845730Y-108821678D01*
X102845726Y-108821682D01*
X102755085Y-108939808D01*
X102755083Y-108939812D01*
X102698103Y-109077374D01*
X102683548Y-109187932D01*
X102683548Y-110755500D01*
X102670661Y-110786613D01*
X102639548Y-110799500D01*
X102268548Y-110799500D01*
X102237435Y-110786613D01*
X102224548Y-110755500D01*
X102224548Y-109187932D01*
X102219810Y-109151945D01*
X102209993Y-109077375D01*
X102153012Y-108939810D01*
X102062368Y-108821680D01*
X101944238Y-108731036D01*
X101806673Y-108674055D01*
X101696116Y-108659500D01*
X101634406Y-108659500D01*
X101603293Y-108646613D01*
X101590406Y-108615500D01*
X101603293Y-108584387D01*
X101610966Y-108576714D01*
X101652503Y-108504771D01*
X101674004Y-108424529D01*
X101674004Y-108341457D01*
X101652503Y-108261215D01*
X101652502Y-108261213D01*
X101651756Y-108258429D01*
X101653607Y-108257932D01*
X101653493Y-108230266D01*
X101677208Y-108206355D01*
X101682808Y-108204440D01*
X101721778Y-108193999D01*
X101793721Y-108152462D01*
X101852462Y-108093721D01*
X101893999Y-108021778D01*
X101915500Y-107941536D01*
X101915500Y-107908464D01*
X102184500Y-107908464D01*
X102184500Y-107991536D01*
X102206001Y-108071778D01*
X102247538Y-108143721D01*
X102306279Y-108202462D01*
X102378222Y-108243999D01*
X102458464Y-108265500D01*
X102458466Y-108265500D01*
X102541534Y-108265500D01*
X102541536Y-108265500D01*
X102621778Y-108243999D01*
X102693721Y-108202462D01*
X102752462Y-108143721D01*
X102793999Y-108071778D01*
X102815500Y-107991536D01*
X102815500Y-107908464D01*
X102793999Y-107828222D01*
X102752462Y-107756279D01*
X102693721Y-107697538D01*
X102693720Y-107697537D01*
X102621782Y-107656003D01*
X102621778Y-107656001D01*
X102541536Y-107634500D01*
X102458464Y-107634500D01*
X102409810Y-107647537D01*
X102378221Y-107656001D01*
X102378217Y-107656003D01*
X102306280Y-107697537D01*
X102306279Y-107697537D01*
X102247537Y-107756279D01*
X102247537Y-107756280D01*
X102206003Y-107828217D01*
X102206001Y-107828221D01*
X102197898Y-107858464D01*
X102184500Y-107908464D01*
X101915500Y-107908464D01*
X101915500Y-107858464D01*
X101893999Y-107778222D01*
X101852462Y-107706279D01*
X101793721Y-107647538D01*
X101793720Y-107647537D01*
X101721782Y-107606003D01*
X101721778Y-107606001D01*
X101641536Y-107584500D01*
X101558464Y-107584500D01*
X101504969Y-107598834D01*
X101478221Y-107606001D01*
X101478217Y-107606003D01*
X101406280Y-107647537D01*
X101406279Y-107647537D01*
X101347537Y-107706279D01*
X101347537Y-107706280D01*
X101306003Y-107778217D01*
X101306001Y-107778221D01*
X101306001Y-107778222D01*
X101284500Y-107858464D01*
X101284500Y-107941536D01*
X101304319Y-108015500D01*
X101306748Y-108024564D01*
X101304948Y-108025046D01*
X101304930Y-108052920D01*
X101281102Y-108076718D01*
X101275681Y-108078555D01*
X101256339Y-108083738D01*
X101236725Y-108088994D01*
X101236721Y-108088996D01*
X101164784Y-108130530D01*
X101164783Y-108130530D01*
X101106041Y-108189272D01*
X101106041Y-108189273D01*
X101064507Y-108261210D01*
X101064505Y-108261214D01*
X101064505Y-108261215D01*
X101043004Y-108341457D01*
X101043004Y-108424529D01*
X101064505Y-108504771D01*
X101064507Y-108504775D01*
X101106041Y-108576712D01*
X101106041Y-108576713D01*
X101113715Y-108584387D01*
X101126602Y-108615500D01*
X101113715Y-108646613D01*
X101082602Y-108659500D01*
X100671980Y-108659500D01*
X100561422Y-108674055D01*
X100423860Y-108731035D01*
X100423856Y-108731037D01*
X100305730Y-108821678D01*
X100305725Y-108821683D01*
X100279407Y-108855982D01*
X100250243Y-108872820D01*
X100217714Y-108864103D01*
X100200876Y-108834939D01*
X100200500Y-108829196D01*
X100200500Y-106244409D01*
X100999283Y-106244409D01*
X100999283Y-106327481D01*
X101019374Y-106402462D01*
X101020784Y-106407723D01*
X101020786Y-106407727D01*
X101041728Y-106443998D01*
X101062321Y-106479666D01*
X101121062Y-106538407D01*
X101193005Y-106579944D01*
X101273247Y-106601445D01*
X101273249Y-106601445D01*
X101356317Y-106601445D01*
X101356319Y-106601445D01*
X101436561Y-106579944D01*
X101508504Y-106538407D01*
X101567245Y-106479666D01*
X101608782Y-106407723D01*
X101630283Y-106327481D01*
X101630283Y-106244409D01*
X101608782Y-106164167D01*
X101567245Y-106092224D01*
X101565191Y-106090170D01*
X101552304Y-106059057D01*
X101565191Y-106027944D01*
X101596304Y-106015057D01*
X101618304Y-106020952D01*
X101658222Y-106043999D01*
X101738464Y-106065500D01*
X101738466Y-106065500D01*
X101821534Y-106065500D01*
X101821536Y-106065500D01*
X101901778Y-106043999D01*
X101973721Y-106002462D01*
X102032462Y-105943721D01*
X102073999Y-105871778D01*
X102095500Y-105791536D01*
X102095500Y-105708464D01*
X102073999Y-105628222D01*
X102032462Y-105556279D01*
X101973721Y-105497538D01*
X101973720Y-105497537D01*
X101901782Y-105456003D01*
X101901778Y-105456001D01*
X101821536Y-105434500D01*
X101738464Y-105434500D01*
X101684969Y-105448834D01*
X101658221Y-105456001D01*
X101658217Y-105456003D01*
X101586280Y-105497537D01*
X101586279Y-105497537D01*
X101527537Y-105556279D01*
X101527537Y-105556280D01*
X101486003Y-105628217D01*
X101486001Y-105628221D01*
X101484607Y-105633423D01*
X101464500Y-105708464D01*
X101464500Y-105791536D01*
X101481774Y-105856001D01*
X101486001Y-105871778D01*
X101486003Y-105871782D01*
X101527537Y-105943719D01*
X101527537Y-105943720D01*
X101529591Y-105945774D01*
X101542478Y-105976887D01*
X101529591Y-106008000D01*
X101498478Y-106020887D01*
X101476478Y-106014992D01*
X101436565Y-105991948D01*
X101436561Y-105991946D01*
X101356319Y-105970445D01*
X101273247Y-105970445D01*
X101219752Y-105984779D01*
X101193004Y-105991946D01*
X101193000Y-105991948D01*
X101121063Y-106033482D01*
X101121062Y-106033482D01*
X101062320Y-106092224D01*
X101062320Y-106092225D01*
X101020786Y-106164162D01*
X101020784Y-106164166D01*
X101014264Y-106188501D01*
X100999283Y-106244409D01*
X100200500Y-106244409D01*
X100200500Y-105242646D01*
X100321532Y-105242646D01*
X100321532Y-105325718D01*
X100343033Y-105405960D01*
X100384570Y-105477903D01*
X100443311Y-105536644D01*
X100515254Y-105578181D01*
X100595496Y-105599682D01*
X100595498Y-105599682D01*
X100678566Y-105599682D01*
X100678568Y-105599682D01*
X100758810Y-105578181D01*
X100830753Y-105536644D01*
X100889494Y-105477903D01*
X100931031Y-105405960D01*
X100952532Y-105325718D01*
X100952532Y-105242646D01*
X100952531Y-105242644D01*
X100952205Y-105240167D01*
X100960918Y-105207637D01*
X100990080Y-105190796D01*
X101010378Y-105193467D01*
X101010436Y-105193252D01*
X101012072Y-105193690D01*
X101012669Y-105193769D01*
X101013216Y-105193996D01*
X101013222Y-105193999D01*
X101093464Y-105215500D01*
X101093466Y-105215500D01*
X101176534Y-105215500D01*
X101176536Y-105215500D01*
X101256778Y-105193999D01*
X101328721Y-105152462D01*
X101387462Y-105093721D01*
X101428999Y-105021778D01*
X101450500Y-104941536D01*
X101450500Y-104858464D01*
X101428999Y-104778222D01*
X101387462Y-104706279D01*
X101328721Y-104647538D01*
X101328720Y-104647537D01*
X101256782Y-104606003D01*
X101256778Y-104606001D01*
X101176536Y-104584500D01*
X101093464Y-104584500D01*
X101058014Y-104593999D01*
X101013221Y-104606001D01*
X101013217Y-104606003D01*
X100941280Y-104647537D01*
X100941279Y-104647537D01*
X100882537Y-104706279D01*
X100882537Y-104706280D01*
X100841003Y-104778217D01*
X100841001Y-104778221D01*
X100819500Y-104858465D01*
X100819500Y-104941536D01*
X100819827Y-104944021D01*
X100811109Y-104976549D01*
X100781944Y-104993386D01*
X100761653Y-104990714D01*
X100761596Y-104990930D01*
X100759961Y-104990491D01*
X100759369Y-104990414D01*
X100758816Y-104990185D01*
X100758811Y-104990183D01*
X100758810Y-104990183D01*
X100678568Y-104968682D01*
X100595496Y-104968682D01*
X100542001Y-104983016D01*
X100515253Y-104990183D01*
X100515249Y-104990185D01*
X100443312Y-105031719D01*
X100443311Y-105031719D01*
X100384569Y-105090461D01*
X100384569Y-105090462D01*
X100343035Y-105162399D01*
X100343033Y-105162403D01*
X100343033Y-105162404D01*
X100321532Y-105242646D01*
X100200500Y-105242646D01*
X100200500Y-104362255D01*
X100213387Y-104331142D01*
X100244500Y-104318255D01*
X100275613Y-104331142D01*
G37*
%TD.AperFunction*%
%TA.AperFunction,Conductor*%
G36*
X109553421Y-99701042D02*
G01*
X109570044Y-99703674D01*
X109620218Y-99711621D01*
X109633305Y-99715872D01*
X109690442Y-99744985D01*
X109701578Y-99753076D01*
X109746923Y-99798421D01*
X109755014Y-99809558D01*
X109784125Y-99866690D01*
X109788379Y-99879783D01*
X109798958Y-99946577D01*
X109799500Y-99953460D01*
X109799500Y-101537086D01*
X109786613Y-101568199D01*
X109755500Y-101581086D01*
X109724387Y-101568199D01*
X109663722Y-101507534D01*
X109591784Y-101466000D01*
X109591780Y-101465998D01*
X109583275Y-101463719D01*
X109511538Y-101444497D01*
X109428466Y-101444497D01*
X109374971Y-101458831D01*
X109348223Y-101465998D01*
X109348219Y-101466000D01*
X109276282Y-101507534D01*
X109276281Y-101507534D01*
X109217539Y-101566276D01*
X109217539Y-101566277D01*
X109176005Y-101638214D01*
X109176003Y-101638218D01*
X109176003Y-101638219D01*
X109154502Y-101718461D01*
X109154502Y-101801533D01*
X109165469Y-101842462D01*
X109176003Y-101881775D01*
X109176005Y-101881779D01*
X109217539Y-101953716D01*
X109217539Y-101953717D01*
X109262707Y-101998885D01*
X109275594Y-102029998D01*
X109262707Y-102061110D01*
X109217543Y-102106274D01*
X109217539Y-102106280D01*
X109176005Y-102178217D01*
X109176003Y-102178221D01*
X109176003Y-102178222D01*
X109154502Y-102258464D01*
X109154502Y-102341536D01*
X109176003Y-102421778D01*
X109215259Y-102489771D01*
X109217539Y-102493719D01*
X109217539Y-102493720D01*
X109239955Y-102516136D01*
X109252842Y-102547249D01*
X109239955Y-102578362D01*
X109230854Y-102585347D01*
X109230440Y-102585585D01*
X109230434Y-102585590D01*
X109171692Y-102644332D01*
X109171692Y-102644333D01*
X109130158Y-102716270D01*
X109130156Y-102716274D01*
X109123200Y-102742234D01*
X109108655Y-102796517D01*
X109108655Y-102879589D01*
X109125015Y-102940645D01*
X109130156Y-102959831D01*
X109130158Y-102959835D01*
X109149722Y-102993720D01*
X109171693Y-103031774D01*
X109230434Y-103090515D01*
X109302377Y-103132052D01*
X109382619Y-103153553D01*
X109382621Y-103153553D01*
X109465689Y-103153553D01*
X109465691Y-103153553D01*
X109545933Y-103132052D01*
X109617876Y-103090515D01*
X109676617Y-103031774D01*
X109717395Y-102961146D01*
X109744112Y-102940645D01*
X109777500Y-102945041D01*
X109798001Y-102971758D01*
X109799500Y-102983146D01*
X109799500Y-104619097D01*
X109786613Y-104650210D01*
X109755500Y-104663097D01*
X109733500Y-104657202D01*
X109696783Y-104636003D01*
X109696778Y-104636001D01*
X109616536Y-104614500D01*
X109533464Y-104614500D01*
X109479969Y-104628834D01*
X109453221Y-104636001D01*
X109453217Y-104636003D01*
X109381280Y-104677537D01*
X109381279Y-104677537D01*
X109322537Y-104736279D01*
X109322537Y-104736280D01*
X109281003Y-104808217D01*
X109281001Y-104808221D01*
X109281001Y-104808222D01*
X109259500Y-104888464D01*
X109259500Y-104971536D01*
X109281001Y-105051778D01*
X109322538Y-105123721D01*
X109381279Y-105182462D01*
X109453222Y-105223999D01*
X109533464Y-105245500D01*
X109533466Y-105245500D01*
X109616534Y-105245500D01*
X109616536Y-105245500D01*
X109696778Y-105223999D01*
X109733500Y-105202796D01*
X109766887Y-105198401D01*
X109793605Y-105218901D01*
X109799500Y-105240902D01*
X109799500Y-108836953D01*
X109786613Y-108868066D01*
X109755500Y-108880953D01*
X109724387Y-108868066D01*
X109720599Y-108863747D01*
X109688320Y-108821680D01*
X109570190Y-108731036D01*
X109432625Y-108674055D01*
X109322068Y-108659500D01*
X108297932Y-108659500D01*
X108187374Y-108674055D01*
X108049812Y-108731035D01*
X108049808Y-108731037D01*
X107931680Y-108821679D01*
X107931673Y-108821686D01*
X107919369Y-108837721D01*
X107890204Y-108854558D01*
X107857676Y-108845840D01*
X107845880Y-108830465D01*
X107845441Y-108830719D01*
X107829736Y-108803518D01*
X107802462Y-108756279D01*
X107743721Y-108697538D01*
X107743720Y-108697537D01*
X107671782Y-108656003D01*
X107671778Y-108656001D01*
X107591536Y-108634500D01*
X107508464Y-108634500D01*
X107463258Y-108646613D01*
X107428221Y-108656001D01*
X107428217Y-108656003D01*
X107356280Y-108697537D01*
X107356279Y-108697537D01*
X107297537Y-108756279D01*
X107297537Y-108756280D01*
X107256003Y-108828217D01*
X107255999Y-108828227D01*
X107252522Y-108841203D01*
X107232021Y-108867920D01*
X107198633Y-108872314D01*
X107175116Y-108856601D01*
X107148320Y-108821680D01*
X107030190Y-108731036D01*
X106892625Y-108674055D01*
X106782068Y-108659500D01*
X106554500Y-108659500D01*
X106523387Y-108646613D01*
X106510500Y-108615500D01*
X106510500Y-107834553D01*
X106507878Y-107828222D01*
X106473886Y-107746158D01*
X106469262Y-107741534D01*
X106414422Y-107686693D01*
X106414421Y-107686693D01*
X106386192Y-107658464D01*
X107934500Y-107658464D01*
X107934500Y-107741536D01*
X107938451Y-107756280D01*
X107956001Y-107821778D01*
X107956003Y-107821782D01*
X107963376Y-107834552D01*
X107997538Y-107893721D01*
X108056279Y-107952462D01*
X108128222Y-107993999D01*
X108208464Y-108015500D01*
X108208466Y-108015500D01*
X108291534Y-108015500D01*
X108291536Y-108015500D01*
X108371778Y-107993999D01*
X108443721Y-107952462D01*
X108502462Y-107893721D01*
X108543999Y-107821778D01*
X108565500Y-107741536D01*
X108565500Y-107658464D01*
X108543999Y-107578222D01*
X108502462Y-107506279D01*
X108443721Y-107447538D01*
X108443720Y-107447537D01*
X108371782Y-107406003D01*
X108371778Y-107406001D01*
X108291536Y-107384500D01*
X108208464Y-107384500D01*
X108154969Y-107398834D01*
X108128221Y-107406001D01*
X108128217Y-107406003D01*
X108056280Y-107447537D01*
X108056279Y-107447537D01*
X107997537Y-107506279D01*
X107997537Y-107506280D01*
X107956003Y-107578217D01*
X107956001Y-107578221D01*
X107948557Y-107606003D01*
X107934500Y-107658464D01*
X106386192Y-107658464D01*
X105699506Y-106971778D01*
X105286193Y-106558464D01*
X107334500Y-106558464D01*
X107334500Y-106641536D01*
X107351848Y-106706279D01*
X107356001Y-106721778D01*
X107356003Y-106721782D01*
X107382467Y-106767617D01*
X107397538Y-106793721D01*
X107456279Y-106852462D01*
X107528222Y-106893999D01*
X107608464Y-106915500D01*
X107608466Y-106915500D01*
X107691534Y-106915500D01*
X107691536Y-106915500D01*
X107771778Y-106893999D01*
X107843721Y-106852462D01*
X107902462Y-106793721D01*
X107943999Y-106721778D01*
X107965500Y-106641536D01*
X107965500Y-106615995D01*
X107978387Y-106584882D01*
X108009500Y-106571995D01*
X108040613Y-106584882D01*
X108047604Y-106593994D01*
X108077537Y-106645838D01*
X108136278Y-106704579D01*
X108208221Y-106746116D01*
X108288463Y-106767617D01*
X108288465Y-106767617D01*
X108371533Y-106767617D01*
X108371535Y-106767617D01*
X108451777Y-106746116D01*
X108523720Y-106704579D01*
X108582461Y-106645838D01*
X108623998Y-106573895D01*
X108645499Y-106493653D01*
X108645499Y-106410581D01*
X108623998Y-106330339D01*
X108582461Y-106258396D01*
X108523720Y-106199655D01*
X108523719Y-106199654D01*
X108451781Y-106158120D01*
X108451777Y-106158118D01*
X108371535Y-106136617D01*
X108288463Y-106136617D01*
X108234968Y-106150951D01*
X108208220Y-106158118D01*
X108208216Y-106158120D01*
X108136279Y-106199654D01*
X108136278Y-106199654D01*
X108077536Y-106258396D01*
X108077536Y-106258397D01*
X108036002Y-106330334D01*
X108036000Y-106330338D01*
X108032414Y-106343721D01*
X108015652Y-106406280D01*
X108014499Y-106410582D01*
X108014499Y-106436121D01*
X108001612Y-106467234D01*
X107970499Y-106480121D01*
X107939386Y-106467234D01*
X107932394Y-106458121D01*
X107904946Y-106410582D01*
X107902462Y-106406279D01*
X107843721Y-106347538D01*
X107843720Y-106347537D01*
X107771782Y-106306003D01*
X107771778Y-106306001D01*
X107770770Y-106305731D01*
X107691536Y-106284500D01*
X107608464Y-106284500D01*
X107573014Y-106293999D01*
X107528221Y-106306001D01*
X107528217Y-106306003D01*
X107456280Y-106347537D01*
X107456279Y-106347537D01*
X107397537Y-106406279D01*
X107397537Y-106406280D01*
X107356003Y-106478217D01*
X107356001Y-106478221D01*
X107355614Y-106479665D01*
X107334500Y-106558464D01*
X105286193Y-106558464D01*
X104963843Y-106236114D01*
X104875449Y-106199500D01*
X104875448Y-106199500D01*
X104867411Y-106199500D01*
X104836298Y-106186613D01*
X104823411Y-106155500D01*
X104836298Y-106124387D01*
X104845411Y-106117395D01*
X104848922Y-106115367D01*
X104910864Y-106079605D01*
X104969605Y-106020864D01*
X105005632Y-105958464D01*
X105564500Y-105958464D01*
X105564500Y-106041536D01*
X105582434Y-106108465D01*
X105586001Y-106121778D01*
X105586003Y-106121782D01*
X105605471Y-106155500D01*
X105627538Y-106193721D01*
X105686279Y-106252462D01*
X105758222Y-106293999D01*
X105838464Y-106315500D01*
X105838466Y-106315500D01*
X105921534Y-106315500D01*
X105921536Y-106315500D01*
X106001778Y-106293999D01*
X106073721Y-106252462D01*
X106132462Y-106193721D01*
X106173999Y-106121778D01*
X106195500Y-106041536D01*
X106195500Y-105958464D01*
X106173999Y-105878222D01*
X106132462Y-105806279D01*
X106073721Y-105747538D01*
X106073720Y-105747537D01*
X106001782Y-105706003D01*
X106001778Y-105706001D01*
X105999386Y-105705360D01*
X105921536Y-105684500D01*
X105838464Y-105684500D01*
X105784969Y-105698834D01*
X105758221Y-105706001D01*
X105758217Y-105706003D01*
X105686280Y-105747537D01*
X105686279Y-105747537D01*
X105627537Y-105806279D01*
X105627537Y-105806280D01*
X105586003Y-105878217D01*
X105586001Y-105878221D01*
X105580825Y-105897538D01*
X105564500Y-105958464D01*
X105005632Y-105958464D01*
X105011142Y-105948921D01*
X105012536Y-105943721D01*
X105030617Y-105876240D01*
X105032643Y-105868679D01*
X105032643Y-105785607D01*
X105011142Y-105705365D01*
X104969605Y-105633422D01*
X104910864Y-105574681D01*
X104910863Y-105574680D01*
X104838925Y-105533146D01*
X104838921Y-105533144D01*
X104758679Y-105511643D01*
X104675607Y-105511643D01*
X104622112Y-105525977D01*
X104595364Y-105533144D01*
X104595360Y-105533146D01*
X104523423Y-105574680D01*
X104523422Y-105574680D01*
X104464680Y-105633422D01*
X104464680Y-105633423D01*
X104423146Y-105705360D01*
X104423144Y-105705364D01*
X104401643Y-105785608D01*
X104401643Y-105805298D01*
X104388756Y-105836411D01*
X104357643Y-105849298D01*
X104326530Y-105836411D01*
X103349064Y-104858945D01*
X107324500Y-104858945D01*
X107324500Y-104942017D01*
X107346001Y-105022259D01*
X107387538Y-105094202D01*
X107446279Y-105152943D01*
X107518222Y-105194480D01*
X107598464Y-105215981D01*
X107598466Y-105215981D01*
X107681534Y-105215981D01*
X107681536Y-105215981D01*
X107761778Y-105194480D01*
X107833721Y-105152943D01*
X107892462Y-105094202D01*
X107933999Y-105022259D01*
X107955500Y-104942017D01*
X107955500Y-104858945D01*
X107933999Y-104778703D01*
X107892462Y-104706760D01*
X107833721Y-104648019D01*
X107833720Y-104648018D01*
X107761782Y-104606484D01*
X107761778Y-104606482D01*
X107759983Y-104606001D01*
X107681536Y-104584981D01*
X107598464Y-104584981D01*
X107564809Y-104593999D01*
X107518221Y-104606482D01*
X107518217Y-104606484D01*
X107446280Y-104648018D01*
X107446279Y-104648018D01*
X107387537Y-104706760D01*
X107387537Y-104706761D01*
X107346003Y-104778698D01*
X107346001Y-104778702D01*
X107346001Y-104778703D01*
X107324500Y-104858945D01*
X103349064Y-104858945D01*
X102748583Y-104258464D01*
X104284500Y-104258464D01*
X104284500Y-104341536D01*
X104306001Y-104421778D01*
X104347538Y-104493721D01*
X104406279Y-104552462D01*
X104478222Y-104593999D01*
X104558464Y-104615500D01*
X104558466Y-104615500D01*
X104641534Y-104615500D01*
X104641536Y-104615500D01*
X104721778Y-104593999D01*
X104793721Y-104552462D01*
X104852462Y-104493721D01*
X104893999Y-104421778D01*
X104914983Y-104343464D01*
X106414500Y-104343464D01*
X106414500Y-104426536D01*
X106436001Y-104506778D01*
X106477538Y-104578721D01*
X106536279Y-104637462D01*
X106608222Y-104678999D01*
X106688464Y-104700500D01*
X106688466Y-104700500D01*
X106771534Y-104700500D01*
X106771536Y-104700500D01*
X106851778Y-104678999D01*
X106923721Y-104637462D01*
X106982462Y-104578721D01*
X107023999Y-104506778D01*
X107045500Y-104426536D01*
X107045500Y-104343464D01*
X107023999Y-104263222D01*
X106982462Y-104191279D01*
X106923721Y-104132538D01*
X106923720Y-104132537D01*
X106851782Y-104091003D01*
X106851778Y-104091001D01*
X106836693Y-104086959D01*
X106771536Y-104069500D01*
X106688464Y-104069500D01*
X106634969Y-104083834D01*
X106608221Y-104091001D01*
X106608217Y-104091003D01*
X106536280Y-104132537D01*
X106536279Y-104132537D01*
X106477537Y-104191279D01*
X106477537Y-104191280D01*
X106436003Y-104263217D01*
X106436001Y-104263221D01*
X106425250Y-104303343D01*
X106414500Y-104343464D01*
X104914983Y-104343464D01*
X104915500Y-104341536D01*
X104915500Y-104258464D01*
X104893999Y-104178222D01*
X104852462Y-104106279D01*
X104793721Y-104047538D01*
X104793720Y-104047537D01*
X104721782Y-104006003D01*
X104721778Y-104006001D01*
X104641536Y-103984500D01*
X104558464Y-103984500D01*
X104504969Y-103998834D01*
X104478221Y-104006001D01*
X104478217Y-104006003D01*
X104406280Y-104047537D01*
X104406279Y-104047537D01*
X104347537Y-104106279D01*
X104347537Y-104106280D01*
X104306003Y-104178217D01*
X104306001Y-104178221D01*
X104306001Y-104178222D01*
X104284500Y-104258464D01*
X102748583Y-104258464D01*
X102283080Y-103792961D01*
X103570159Y-103792961D01*
X103570159Y-103876033D01*
X103591660Y-103956275D01*
X103633197Y-104028218D01*
X103691938Y-104086959D01*
X103763881Y-104128496D01*
X103844123Y-104149997D01*
X103844125Y-104149997D01*
X103927193Y-104149997D01*
X103927195Y-104149997D01*
X104007437Y-104128496D01*
X104079380Y-104086959D01*
X104138121Y-104028218D01*
X104179658Y-103956275D01*
X104201159Y-103876033D01*
X104201159Y-103792961D01*
X104179658Y-103712719D01*
X104138121Y-103640776D01*
X104079380Y-103582035D01*
X104079379Y-103582034D01*
X104007441Y-103540500D01*
X104007437Y-103540498D01*
X103927195Y-103518997D01*
X103844123Y-103518997D01*
X103790628Y-103533331D01*
X103763880Y-103540498D01*
X103763876Y-103540500D01*
X103691939Y-103582034D01*
X103691938Y-103582034D01*
X103633196Y-103640776D01*
X103633196Y-103640777D01*
X103591662Y-103712714D01*
X103591660Y-103712718D01*
X103591660Y-103712719D01*
X103570159Y-103792961D01*
X102283080Y-103792961D01*
X101767618Y-103277499D01*
X101754731Y-103246386D01*
X101767618Y-103215273D01*
X101798731Y-103202386D01*
X101810114Y-103203884D01*
X101853464Y-103215500D01*
X101853466Y-103215500D01*
X101936534Y-103215500D01*
X101936536Y-103215500D01*
X102016778Y-103193999D01*
X102088721Y-103152462D01*
X102147462Y-103093721D01*
X102188999Y-103021778D01*
X102193620Y-103004531D01*
X103516306Y-103004531D01*
X103516306Y-103087603D01*
X103534633Y-103156001D01*
X103537807Y-103167845D01*
X103537809Y-103167849D01*
X103557750Y-103202386D01*
X103579344Y-103239788D01*
X103638085Y-103298529D01*
X103710028Y-103340066D01*
X103790270Y-103361567D01*
X103790272Y-103361567D01*
X103873340Y-103361567D01*
X103873342Y-103361567D01*
X103953584Y-103340066D01*
X104008319Y-103308464D01*
X105834500Y-103308464D01*
X105834500Y-103391536D01*
X105856001Y-103471778D01*
X105897538Y-103543721D01*
X105956279Y-103602462D01*
X106028222Y-103643999D01*
X106108464Y-103665500D01*
X106108466Y-103665500D01*
X106191534Y-103665500D01*
X106191536Y-103665500D01*
X106271778Y-103643999D01*
X106343721Y-103602462D01*
X106402462Y-103543721D01*
X106422818Y-103508464D01*
X106834500Y-103508464D01*
X106834500Y-103591536D01*
X106856001Y-103671778D01*
X106897538Y-103743721D01*
X106956279Y-103802462D01*
X107028222Y-103843999D01*
X107108464Y-103865500D01*
X107108466Y-103865500D01*
X107191534Y-103865500D01*
X107191536Y-103865500D01*
X107271778Y-103843999D01*
X107343721Y-103802462D01*
X107402462Y-103743721D01*
X107443999Y-103671778D01*
X107465500Y-103591536D01*
X107465500Y-103508464D01*
X107443999Y-103428222D01*
X107432592Y-103408464D01*
X108034500Y-103408464D01*
X108034500Y-103491536D01*
X108056001Y-103571778D01*
X108097538Y-103643721D01*
X108156279Y-103702462D01*
X108228222Y-103743999D01*
X108308464Y-103765500D01*
X108308466Y-103765500D01*
X108391534Y-103765500D01*
X108391536Y-103765500D01*
X108471778Y-103743999D01*
X108543721Y-103702462D01*
X108602462Y-103643721D01*
X108643999Y-103571778D01*
X108665500Y-103491536D01*
X108665500Y-103408464D01*
X108643999Y-103328222D01*
X108602462Y-103256279D01*
X108543721Y-103197538D01*
X108543720Y-103197537D01*
X108471782Y-103156003D01*
X108471778Y-103156001D01*
X108458570Y-103152462D01*
X108391536Y-103134500D01*
X108308464Y-103134500D01*
X108254969Y-103148834D01*
X108228221Y-103156001D01*
X108228217Y-103156003D01*
X108156280Y-103197537D01*
X108156279Y-103197537D01*
X108097537Y-103256279D01*
X108097537Y-103256280D01*
X108056003Y-103328217D01*
X108056001Y-103328221D01*
X108052827Y-103340066D01*
X108034500Y-103408464D01*
X107432592Y-103408464D01*
X107402462Y-103356279D01*
X107343721Y-103297538D01*
X107343720Y-103297537D01*
X107271782Y-103256003D01*
X107271778Y-103256001D01*
X107191536Y-103234500D01*
X107108464Y-103234500D01*
X107054969Y-103248834D01*
X107028221Y-103256001D01*
X107028217Y-103256003D01*
X106956280Y-103297537D01*
X106956279Y-103297537D01*
X106897537Y-103356279D01*
X106897537Y-103356280D01*
X106856003Y-103428217D01*
X106856001Y-103428221D01*
X106856001Y-103428222D01*
X106834500Y-103508464D01*
X106422818Y-103508464D01*
X106443999Y-103471778D01*
X106465500Y-103391536D01*
X106465500Y-103308464D01*
X106443999Y-103228222D01*
X106402462Y-103156279D01*
X106343721Y-103097538D01*
X106343720Y-103097537D01*
X106271782Y-103056003D01*
X106271778Y-103056001D01*
X106258570Y-103052462D01*
X106191536Y-103034500D01*
X106108464Y-103034500D01*
X106054969Y-103048834D01*
X106028221Y-103056001D01*
X106028217Y-103056003D01*
X105956280Y-103097537D01*
X105956279Y-103097537D01*
X105897537Y-103156279D01*
X105897537Y-103156280D01*
X105856003Y-103228217D01*
X105856001Y-103228221D01*
X105848557Y-103256003D01*
X105834500Y-103308464D01*
X104008319Y-103308464D01*
X104025527Y-103298529D01*
X104084268Y-103239788D01*
X104125805Y-103167845D01*
X104147306Y-103087603D01*
X104147306Y-103004531D01*
X104125805Y-102924289D01*
X104084268Y-102852346D01*
X104025527Y-102793605D01*
X104025526Y-102793604D01*
X103964663Y-102758464D01*
X104264500Y-102758464D01*
X104264500Y-102841536D01*
X104282434Y-102908465D01*
X104286001Y-102921778D01*
X104286003Y-102921782D01*
X104311244Y-102965500D01*
X104327538Y-102993721D01*
X104386279Y-103052462D01*
X104458222Y-103093999D01*
X104538464Y-103115500D01*
X104538466Y-103115500D01*
X104621534Y-103115500D01*
X104621536Y-103115500D01*
X104701778Y-103093999D01*
X104773721Y-103052462D01*
X104832462Y-102993721D01*
X104873999Y-102921778D01*
X104895500Y-102841536D01*
X104895500Y-102758464D01*
X104873999Y-102678222D01*
X104832462Y-102606279D01*
X104773721Y-102547538D01*
X104773720Y-102547537D01*
X104701782Y-102506003D01*
X104701778Y-102506001D01*
X104621536Y-102484500D01*
X104538464Y-102484500D01*
X104503014Y-102493999D01*
X104458221Y-102506001D01*
X104458217Y-102506003D01*
X104386280Y-102547537D01*
X104386279Y-102547537D01*
X104327537Y-102606279D01*
X104327537Y-102606280D01*
X104286003Y-102678217D01*
X104286001Y-102678221D01*
X104280825Y-102697538D01*
X104264500Y-102758464D01*
X103964663Y-102758464D01*
X103953588Y-102752070D01*
X103953584Y-102752068D01*
X103929072Y-102745500D01*
X103873342Y-102730567D01*
X103790270Y-102730567D01*
X103746729Y-102742234D01*
X103710027Y-102752068D01*
X103710023Y-102752070D01*
X103638086Y-102793604D01*
X103638085Y-102793604D01*
X103579343Y-102852346D01*
X103579343Y-102852347D01*
X103537809Y-102924284D01*
X103537807Y-102924288D01*
X103532526Y-102943996D01*
X103516306Y-103004531D01*
X102193620Y-103004531D01*
X102210500Y-102941536D01*
X102210500Y-102858464D01*
X102188999Y-102778222D01*
X102147462Y-102706279D01*
X102088721Y-102647538D01*
X102088720Y-102647537D01*
X102016782Y-102606003D01*
X102016778Y-102606001D01*
X101936536Y-102584500D01*
X101853464Y-102584500D01*
X101802981Y-102598027D01*
X101773221Y-102606001D01*
X101773217Y-102606003D01*
X101701280Y-102647537D01*
X101701279Y-102647537D01*
X101642537Y-102706279D01*
X101642537Y-102706280D01*
X101601003Y-102778217D01*
X101601001Y-102778221D01*
X101590250Y-102818343D01*
X101579500Y-102858464D01*
X101579500Y-102941536D01*
X101584755Y-102961146D01*
X101591114Y-102984880D01*
X101586718Y-103018268D01*
X101560001Y-103038769D01*
X101526613Y-103034373D01*
X101517500Y-103027381D01*
X100896818Y-102406699D01*
X102830900Y-102406699D01*
X102830900Y-102489771D01*
X102837794Y-102515500D01*
X102852401Y-102570013D01*
X102852403Y-102570017D01*
X102873340Y-102606280D01*
X102893938Y-102641956D01*
X102952679Y-102700697D01*
X103024622Y-102742234D01*
X103104864Y-102763735D01*
X103104866Y-102763735D01*
X103187934Y-102763735D01*
X103187936Y-102763735D01*
X103268178Y-102742234D01*
X103340121Y-102700697D01*
X103398862Y-102641956D01*
X103440399Y-102570013D01*
X103461900Y-102489771D01*
X103461900Y-102406699D01*
X103457014Y-102388464D01*
X104904500Y-102388464D01*
X104904500Y-102471536D01*
X104916280Y-102515500D01*
X104926001Y-102551778D01*
X104926003Y-102551782D01*
X104943601Y-102582261D01*
X104967538Y-102623721D01*
X105026279Y-102682462D01*
X105098222Y-102723999D01*
X105178464Y-102745500D01*
X105178466Y-102745500D01*
X105261534Y-102745500D01*
X105261536Y-102745500D01*
X105341778Y-102723999D01*
X105413721Y-102682462D01*
X105413729Y-102682454D01*
X105413734Y-102682451D01*
X105416011Y-102680705D01*
X105416478Y-102681314D01*
X105444838Y-102669559D01*
X105475954Y-102682439D01*
X105487349Y-102702169D01*
X105502434Y-102758465D01*
X105506001Y-102771778D01*
X105506003Y-102771782D01*
X105518602Y-102793604D01*
X105547538Y-102843721D01*
X105606279Y-102902462D01*
X105678222Y-102943999D01*
X105758464Y-102965500D01*
X105758466Y-102965500D01*
X105841534Y-102965500D01*
X105841536Y-102965500D01*
X105921778Y-102943999D01*
X105983325Y-102908464D01*
X107434500Y-102908464D01*
X107434500Y-102991536D01*
X107447156Y-103038769D01*
X107456001Y-103071778D01*
X107456003Y-103071782D01*
X107470873Y-103097537D01*
X107497538Y-103143721D01*
X107556279Y-103202462D01*
X107628222Y-103243999D01*
X107708464Y-103265500D01*
X107708466Y-103265500D01*
X107791534Y-103265500D01*
X107791536Y-103265500D01*
X107871778Y-103243999D01*
X107943721Y-103202462D01*
X108002462Y-103143721D01*
X108043999Y-103071778D01*
X108065500Y-102991536D01*
X108065500Y-102908464D01*
X108043999Y-102828222D01*
X108002462Y-102756279D01*
X107943721Y-102697538D01*
X107943720Y-102697537D01*
X107871782Y-102656003D01*
X107871778Y-102656001D01*
X107791536Y-102634500D01*
X107708464Y-102634500D01*
X107659810Y-102647537D01*
X107628221Y-102656001D01*
X107628217Y-102656003D01*
X107556280Y-102697537D01*
X107556279Y-102697537D01*
X107497537Y-102756279D01*
X107497537Y-102756280D01*
X107456003Y-102828217D01*
X107456001Y-102828221D01*
X107451848Y-102843720D01*
X107434500Y-102908464D01*
X105983325Y-102908464D01*
X105993721Y-102902462D01*
X106052462Y-102843721D01*
X106093999Y-102771778D01*
X106115500Y-102691536D01*
X106115500Y-102608464D01*
X106093999Y-102528222D01*
X106052462Y-102456279D01*
X105993721Y-102397538D01*
X105993720Y-102397537D01*
X105921782Y-102356003D01*
X105921778Y-102356001D01*
X105891317Y-102347839D01*
X105841536Y-102334500D01*
X105758464Y-102334500D01*
X105708683Y-102347839D01*
X105678221Y-102356001D01*
X105678217Y-102356003D01*
X105606280Y-102397537D01*
X105606270Y-102397544D01*
X105606255Y-102397560D01*
X105606244Y-102397564D01*
X105603989Y-102399295D01*
X105603524Y-102398690D01*
X105575139Y-102410440D01*
X105544030Y-102397545D01*
X105532650Y-102377831D01*
X105513999Y-102308222D01*
X105472462Y-102236279D01*
X105413721Y-102177538D01*
X105413720Y-102177537D01*
X105380685Y-102158464D01*
X108134500Y-102158464D01*
X108134500Y-102241536D01*
X108152367Y-102308217D01*
X108156001Y-102321778D01*
X108156003Y-102321782D01*
X108175760Y-102356001D01*
X108197538Y-102393721D01*
X108256279Y-102452462D01*
X108328222Y-102493999D01*
X108408464Y-102515500D01*
X108408466Y-102515500D01*
X108491534Y-102515500D01*
X108491536Y-102515500D01*
X108571778Y-102493999D01*
X108643721Y-102452462D01*
X108702462Y-102393721D01*
X108743999Y-102321778D01*
X108765500Y-102241536D01*
X108765500Y-102158464D01*
X108743999Y-102078222D01*
X108702462Y-102006279D01*
X108643721Y-101947538D01*
X108643720Y-101947537D01*
X108571782Y-101906003D01*
X108571778Y-101906001D01*
X108569908Y-101905500D01*
X108491536Y-101884500D01*
X108408464Y-101884500D01*
X108354969Y-101898834D01*
X108328221Y-101906001D01*
X108328217Y-101906003D01*
X108256280Y-101947537D01*
X108256279Y-101947537D01*
X108197537Y-102006279D01*
X108197537Y-102006280D01*
X108156003Y-102078217D01*
X108156001Y-102078221D01*
X108156001Y-102078222D01*
X108134500Y-102158464D01*
X105380685Y-102158464D01*
X105341782Y-102136003D01*
X105341778Y-102136001D01*
X105329589Y-102132735D01*
X105261536Y-102114500D01*
X105178464Y-102114500D01*
X105124969Y-102128834D01*
X105098221Y-102136001D01*
X105098217Y-102136003D01*
X105026280Y-102177537D01*
X105026279Y-102177537D01*
X104967537Y-102236279D01*
X104967537Y-102236280D01*
X104926003Y-102308217D01*
X104926001Y-102308221D01*
X104921116Y-102326452D01*
X104904500Y-102388464D01*
X103457014Y-102388464D01*
X103440399Y-102326457D01*
X103398862Y-102254514D01*
X103340121Y-102195773D01*
X103340120Y-102195772D01*
X103268182Y-102154238D01*
X103268178Y-102154236D01*
X103187936Y-102132735D01*
X103104864Y-102132735D01*
X103051369Y-102147069D01*
X103024621Y-102154236D01*
X103024617Y-102154238D01*
X102952680Y-102195772D01*
X102952679Y-102195772D01*
X102893937Y-102254514D01*
X102893937Y-102254515D01*
X102852403Y-102326452D01*
X102852401Y-102326456D01*
X102846672Y-102347839D01*
X102830900Y-102406699D01*
X100896818Y-102406699D01*
X100703387Y-102213268D01*
X100690500Y-102182155D01*
X100690500Y-101240694D01*
X100703387Y-101209581D01*
X100734500Y-101196694D01*
X100756497Y-101202587D01*
X100828222Y-101243999D01*
X100908464Y-101265500D01*
X100908466Y-101265500D01*
X100991534Y-101265500D01*
X100991536Y-101265500D01*
X101009112Y-101260790D01*
X101042499Y-101265186D01*
X101063001Y-101291902D01*
X101064500Y-101303291D01*
X101064500Y-101311536D01*
X101077964Y-101361782D01*
X101086001Y-101391778D01*
X101086003Y-101391782D01*
X101088600Y-101396280D01*
X101127538Y-101463721D01*
X101186279Y-101522462D01*
X101258222Y-101563999D01*
X101338464Y-101585500D01*
X101338466Y-101585500D01*
X101421534Y-101585500D01*
X101421536Y-101585500D01*
X101501778Y-101563999D01*
X101528685Y-101548464D01*
X101934500Y-101548464D01*
X101934500Y-101631536D01*
X101936291Y-101638219D01*
X101956001Y-101711778D01*
X101956003Y-101711782D01*
X101983692Y-101759740D01*
X101997538Y-101783721D01*
X102056279Y-101842462D01*
X102128222Y-101883999D01*
X102208464Y-101905500D01*
X102208466Y-101905500D01*
X102291534Y-101905500D01*
X102291536Y-101905500D01*
X102371778Y-101883999D01*
X102443721Y-101842462D01*
X102502462Y-101783721D01*
X102543999Y-101711778D01*
X102565500Y-101631536D01*
X102565500Y-101548464D01*
X102543999Y-101468222D01*
X102502462Y-101396279D01*
X102443721Y-101337538D01*
X102443720Y-101337537D01*
X102371782Y-101296003D01*
X102371778Y-101296001D01*
X102356480Y-101291902D01*
X102291536Y-101274500D01*
X102208464Y-101274500D01*
X102154969Y-101288834D01*
X102128221Y-101296001D01*
X102128217Y-101296003D01*
X102056280Y-101337537D01*
X102056279Y-101337537D01*
X101997537Y-101396279D01*
X101997537Y-101396280D01*
X101956003Y-101468217D01*
X101956001Y-101468221D01*
X101956001Y-101468222D01*
X101934500Y-101548464D01*
X101528685Y-101548464D01*
X101573721Y-101522462D01*
X101632462Y-101463721D01*
X101673999Y-101391778D01*
X101695500Y-101311536D01*
X101695500Y-101228464D01*
X101673999Y-101148222D01*
X101632462Y-101076279D01*
X101573721Y-101017538D01*
X101573720Y-101017537D01*
X101501782Y-100976003D01*
X101501778Y-100976001D01*
X101494497Y-100974050D01*
X101421536Y-100954500D01*
X101338464Y-100954500D01*
X101338463Y-100954500D01*
X101320886Y-100959209D01*
X101287498Y-100954812D01*
X101266999Y-100928094D01*
X101265500Y-100916708D01*
X101265500Y-100908465D01*
X101265500Y-100908464D01*
X101243999Y-100828222D01*
X101202462Y-100756279D01*
X101143721Y-100697538D01*
X101143720Y-100697537D01*
X101071782Y-100656003D01*
X101071778Y-100656001D01*
X101039910Y-100647462D01*
X100991536Y-100634500D01*
X100908464Y-100634500D01*
X100860090Y-100647462D01*
X100828221Y-100656001D01*
X100828219Y-100656002D01*
X100814713Y-100663800D01*
X100781325Y-100668194D01*
X100754608Y-100647693D01*
X100750214Y-100614305D01*
X100761603Y-100594580D01*
X100772459Y-100583724D01*
X100772462Y-100583721D01*
X100813999Y-100511778D01*
X100835500Y-100431536D01*
X100835500Y-100353464D01*
X103661678Y-100353464D01*
X103661678Y-100436536D01*
X103678549Y-100499500D01*
X103683179Y-100516778D01*
X103683181Y-100516782D01*
X103700798Y-100547295D01*
X103724716Y-100588721D01*
X103783457Y-100647462D01*
X103855400Y-100688999D01*
X103925214Y-100707705D01*
X103951929Y-100728205D01*
X103956325Y-100761592D01*
X103941087Y-100818464D01*
X103941087Y-100901536D01*
X103956541Y-100959209D01*
X103962588Y-100981778D01*
X103962590Y-100981782D01*
X103968222Y-100991536D01*
X104004125Y-101053721D01*
X104062866Y-101112462D01*
X104134809Y-101153999D01*
X104215051Y-101175500D01*
X104215053Y-101175500D01*
X104298120Y-101175500D01*
X104298123Y-101175500D01*
X104304110Y-101173895D01*
X104337496Y-101178288D01*
X104358000Y-101205002D01*
X104359500Y-101216395D01*
X104359500Y-101281536D01*
X104381001Y-101361778D01*
X104422538Y-101433721D01*
X104481279Y-101492462D01*
X104553222Y-101533999D01*
X104633464Y-101555500D01*
X104633466Y-101555500D01*
X104716534Y-101555500D01*
X104716536Y-101555500D01*
X104796778Y-101533999D01*
X104868721Y-101492462D01*
X104927462Y-101433721D01*
X104968999Y-101361778D01*
X104990500Y-101281536D01*
X104990500Y-101198464D01*
X104968999Y-101118222D01*
X104927462Y-101046279D01*
X104868721Y-100987538D01*
X104868720Y-100987537D01*
X104796780Y-100946002D01*
X104796779Y-100946001D01*
X104796778Y-100946001D01*
X104716536Y-100924500D01*
X104633464Y-100924500D01*
X104627474Y-100926105D01*
X104594086Y-100921709D01*
X104583923Y-100908464D01*
X105084500Y-100908464D01*
X105084500Y-100991536D01*
X105099169Y-101046280D01*
X105106001Y-101071778D01*
X105106003Y-101071782D01*
X105108600Y-101076280D01*
X105147538Y-101143721D01*
X105206279Y-101202462D01*
X105278222Y-101243999D01*
X105342759Y-101261291D01*
X105369474Y-101281791D01*
X105373870Y-101315179D01*
X105353370Y-101341895D01*
X105326282Y-101357535D01*
X105326279Y-101357537D01*
X105267537Y-101416279D01*
X105267537Y-101416280D01*
X105226003Y-101488217D01*
X105226001Y-101488221D01*
X105226001Y-101488222D01*
X105204500Y-101568464D01*
X105204500Y-101651536D01*
X105226001Y-101731778D01*
X105267538Y-101803721D01*
X105326279Y-101862462D01*
X105398222Y-101903999D01*
X105478464Y-101925500D01*
X105478466Y-101925500D01*
X105561534Y-101925500D01*
X105561536Y-101925500D01*
X105641778Y-101903999D01*
X105713721Y-101862462D01*
X105772462Y-101803721D01*
X105813999Y-101731778D01*
X105835500Y-101651536D01*
X105835500Y-101568464D01*
X105813999Y-101488222D01*
X105772462Y-101416279D01*
X105713721Y-101357538D01*
X105713720Y-101357537D01*
X105641782Y-101316003D01*
X105641778Y-101316001D01*
X105638710Y-101315179D01*
X105577240Y-101298708D01*
X105550525Y-101278208D01*
X105546129Y-101244820D01*
X105566630Y-101218103D01*
X105593721Y-101202462D01*
X105652462Y-101143721D01*
X105693999Y-101071778D01*
X105715500Y-100991536D01*
X105715500Y-100908464D01*
X105693999Y-100828222D01*
X105662384Y-100773464D01*
X106450263Y-100773464D01*
X106450263Y-100856536D01*
X106466386Y-100916708D01*
X106471764Y-100936778D01*
X106471766Y-100936782D01*
X106499455Y-100984740D01*
X106513301Y-101008721D01*
X106572042Y-101067462D01*
X106643985Y-101108999D01*
X106724227Y-101130500D01*
X106724229Y-101130500D01*
X106807297Y-101130500D01*
X106807299Y-101130500D01*
X106887541Y-101108999D01*
X106959484Y-101067462D01*
X107018225Y-101008721D01*
X107059762Y-100936778D01*
X107081263Y-100856536D01*
X107081263Y-100773464D01*
X108368053Y-100773464D01*
X108368053Y-100856536D01*
X108384176Y-100916708D01*
X108389554Y-100936778D01*
X108389556Y-100936782D01*
X108417245Y-100984740D01*
X108431091Y-101008721D01*
X108489832Y-101067462D01*
X108561775Y-101108999D01*
X108642017Y-101130500D01*
X108642019Y-101130500D01*
X108725087Y-101130500D01*
X108725089Y-101130500D01*
X108805331Y-101108999D01*
X108877274Y-101067462D01*
X108936015Y-101008721D01*
X108977552Y-100936778D01*
X108999053Y-100856536D01*
X108999053Y-100773464D01*
X108977552Y-100693222D01*
X108936015Y-100621279D01*
X108877274Y-100562538D01*
X108877273Y-100562537D01*
X108805335Y-100521003D01*
X108805331Y-100521001D01*
X108725089Y-100499500D01*
X108642017Y-100499500D01*
X108588522Y-100513834D01*
X108561774Y-100521001D01*
X108561770Y-100521003D01*
X108489833Y-100562537D01*
X108489832Y-100562537D01*
X108431090Y-100621279D01*
X108431090Y-100621280D01*
X108389556Y-100693217D01*
X108389554Y-100693221D01*
X108384924Y-100710500D01*
X108368053Y-100773464D01*
X107081263Y-100773464D01*
X107059762Y-100693222D01*
X107018225Y-100621279D01*
X106959484Y-100562538D01*
X106959483Y-100562537D01*
X106887545Y-100521003D01*
X106887541Y-100521001D01*
X106807299Y-100499500D01*
X106724227Y-100499500D01*
X106670732Y-100513834D01*
X106643984Y-100521001D01*
X106643980Y-100521003D01*
X106572043Y-100562537D01*
X106572042Y-100562537D01*
X106513300Y-100621279D01*
X106513300Y-100621280D01*
X106471766Y-100693217D01*
X106471764Y-100693221D01*
X106467134Y-100710500D01*
X106450263Y-100773464D01*
X105662384Y-100773464D01*
X105652462Y-100756279D01*
X105593721Y-100697538D01*
X105593720Y-100697537D01*
X105521782Y-100656003D01*
X105521778Y-100656001D01*
X105489910Y-100647462D01*
X105441536Y-100634500D01*
X105358464Y-100634500D01*
X105310090Y-100647462D01*
X105278221Y-100656001D01*
X105278217Y-100656003D01*
X105206280Y-100697537D01*
X105206279Y-100697537D01*
X105147537Y-100756279D01*
X105147537Y-100756280D01*
X105106003Y-100828217D01*
X105106001Y-100828221D01*
X105106001Y-100828222D01*
X105084500Y-100908464D01*
X104583923Y-100908464D01*
X104573586Y-100894991D01*
X104572087Y-100883604D01*
X104572087Y-100818465D01*
X104558690Y-100768468D01*
X104550586Y-100738222D01*
X104509049Y-100666279D01*
X104450308Y-100607538D01*
X104450307Y-100607537D01*
X104378369Y-100566003D01*
X104378365Y-100566001D01*
X104365437Y-100562537D01*
X104308550Y-100547294D01*
X104281835Y-100526794D01*
X104277439Y-100493407D01*
X104292678Y-100436536D01*
X104292678Y-100353464D01*
X104271177Y-100273222D01*
X104229640Y-100201279D01*
X104170899Y-100142538D01*
X104170898Y-100142537D01*
X104098960Y-100101003D01*
X104098956Y-100101001D01*
X104080303Y-100096003D01*
X104018714Y-100079500D01*
X103935642Y-100079500D01*
X103882147Y-100093834D01*
X103855399Y-100101001D01*
X103855395Y-100101003D01*
X103783458Y-100142537D01*
X103783457Y-100142537D01*
X103724715Y-100201279D01*
X103724715Y-100201280D01*
X103683181Y-100273217D01*
X103683179Y-100273221D01*
X103683179Y-100273222D01*
X103661678Y-100353464D01*
X100835500Y-100353464D01*
X100835500Y-100348464D01*
X100813999Y-100268222D01*
X100772462Y-100196279D01*
X100713721Y-100137538D01*
X100713720Y-100137537D01*
X100641782Y-100096003D01*
X100641778Y-100096001D01*
X100561536Y-100074500D01*
X100478464Y-100074500D01*
X100424969Y-100088834D01*
X100398221Y-100096001D01*
X100398217Y-100096003D01*
X100326280Y-100137537D01*
X100326279Y-100137537D01*
X100275613Y-100188204D01*
X100244500Y-100201091D01*
X100213387Y-100188204D01*
X100200500Y-100157091D01*
X100200500Y-99953460D01*
X100201042Y-99946578D01*
X100206816Y-99910118D01*
X100211621Y-99879779D01*
X100215871Y-99866696D01*
X100244987Y-99809554D01*
X100253073Y-99798424D01*
X100298424Y-99753073D01*
X100309554Y-99744987D01*
X100366696Y-99715871D01*
X100379779Y-99711621D01*
X100432857Y-99703215D01*
X100446579Y-99701042D01*
X100453461Y-99700500D01*
X100489882Y-99700500D01*
X109510118Y-99700500D01*
X109546539Y-99700500D01*
X109553421Y-99701042D01*
G37*
%TD.AperFunction*%
%TD*%
M02*
